G04 Layer_Color=32896*
%FSLAX44Y44*%
%MOMM*%
G71*
G01*
G75*
%ADD55C,0.1000*%
%ADD58C,0.1500*%
%ADD100R,4.5250X16.8750*%
%ADD101R,4.5250X12.8750*%
%ADD102R,4.5250X9.1750*%
G36*
X88838Y159250D02*
X43590D01*
Y251783D01*
X88838D01*
Y159250D01*
D02*
G37*
G36*
X340338Y157000D02*
X295090D01*
Y249533D01*
X340338D01*
Y157000D01*
D02*
G37*
%LPC*%
G36*
X68750Y231783D02*
X67599D01*
Y229081D01*
X66604D01*
Y231520D01*
X65570D01*
Y229081D01*
X64761D01*
Y231705D01*
X63678D01*
Y227511D01*
X68750D01*
Y231783D01*
D02*
G37*
G36*
X63678Y208911D02*
Y207175D01*
X65385Y206150D01*
X63678Y205136D01*
Y203400D01*
X66634Y205370D01*
X68750D01*
Y206940D01*
X66634D01*
X63678Y208911D01*
D02*
G37*
G36*
X68750Y203390D02*
X65590Y201459D01*
X63678Y203302D01*
Y201215D01*
X65600Y199586D01*
X63678D01*
Y198016D01*
X68750D01*
Y199586D01*
X67521D01*
X66673Y200396D01*
X68750Y201459D01*
Y203390D01*
D02*
G37*
G36*
X67102Y197245D02*
X67092D01*
X66673Y195870D01*
X66848Y195821D01*
X66994Y195773D01*
X67121Y195714D01*
X67228Y195656D01*
X67306Y195607D01*
X67365Y195568D01*
X67404Y195539D01*
X67414Y195529D01*
X67492Y195431D01*
X67550Y195334D01*
X67599Y195217D01*
X67628Y195109D01*
X67648Y195012D01*
X67658Y194934D01*
Y194875D01*
Y194865D01*
Y194856D01*
X67648Y194690D01*
X67609Y194544D01*
X67560Y194427D01*
X67502Y194319D01*
X67443Y194241D01*
X67394Y194183D01*
X67355Y194144D01*
X67345Y194134D01*
X67277Y194085D01*
X67209Y194046D01*
X67033Y193988D01*
X66848Y193939D01*
X66653Y193910D01*
X66477Y193890D01*
X66399D01*
X66331Y193880D01*
X66195D01*
X65951Y193890D01*
X65746Y193910D01*
X65580Y193949D01*
X65434Y193988D01*
X65326Y194027D01*
X65248Y194066D01*
X65209Y194085D01*
X65190Y194095D01*
X65112Y194153D01*
X65044Y194212D01*
X64946Y194339D01*
X64868Y194475D01*
X64809Y194602D01*
X64780Y194719D01*
X64770Y194817D01*
X64761Y194856D01*
Y194885D01*
Y194895D01*
Y194904D01*
X64780Y195070D01*
X64790Y195139D01*
X64809Y195207D01*
X64829Y195256D01*
X64839Y195295D01*
X64858Y195314D01*
Y195324D01*
X64946Y195460D01*
X65034Y195568D01*
X65073Y195607D01*
X65112Y195636D01*
X65131Y195646D01*
X65141Y195656D01*
X65190Y195685D01*
X65239Y195714D01*
X65346Y195763D01*
X65395Y195782D01*
X65434Y195802D01*
X65463Y195812D01*
X65473D01*
X65170Y197197D01*
X64888Y197080D01*
X64644Y196953D01*
X64439Y196816D01*
X64273Y196689D01*
X64146Y196563D01*
X64049Y196465D01*
X64019Y196426D01*
X64000Y196397D01*
X63980Y196387D01*
Y196377D01*
X63912Y196270D01*
X63854Y196153D01*
X63756Y195909D01*
X63688Y195656D01*
X63639Y195422D01*
X63620Y195304D01*
X63610Y195197D01*
X63600Y195109D01*
Y195022D01*
X63590Y194963D01*
Y194904D01*
Y194875D01*
Y194865D01*
X63600Y194641D01*
X63620Y194436D01*
X63649Y194241D01*
X63698Y194056D01*
X63746Y193890D01*
X63805Y193734D01*
X63863Y193588D01*
X63932Y193461D01*
X63990Y193354D01*
X64058Y193246D01*
X64117Y193168D01*
X64166Y193100D01*
X64215Y193042D01*
X64244Y193003D01*
X64263Y192983D01*
X64273Y192973D01*
X64410Y192856D01*
X64546Y192759D01*
X64702Y192671D01*
X64858Y192593D01*
X65014Y192525D01*
X65180Y192476D01*
X65492Y192398D01*
X65639Y192369D01*
X65775Y192349D01*
X65892Y192330D01*
X65999Y192320D01*
X66087Y192310D01*
X66204D01*
X66546Y192330D01*
X66848Y192369D01*
X66985Y192398D01*
X67111Y192427D01*
X67228Y192466D01*
X67336Y192505D01*
X67433Y192534D01*
X67511Y192573D01*
X67589Y192603D01*
X67648Y192632D01*
X67697Y192652D01*
X67726Y192671D01*
X67745Y192691D01*
X67755D01*
X67970Y192837D01*
X68145Y192993D01*
X68292Y193139D01*
X68409Y193285D01*
X68496Y193403D01*
X68555Y193500D01*
X68574Y193539D01*
X68594Y193568D01*
X68604Y193578D01*
Y193588D01*
X68682Y193802D01*
X68740Y194027D01*
X68779Y194251D01*
X68808Y194466D01*
X68828Y194651D01*
Y194739D01*
X68838Y194807D01*
Y194865D01*
Y194904D01*
Y194934D01*
Y194944D01*
X68828Y195187D01*
X68808Y195412D01*
X68779Y195597D01*
X68740Y195763D01*
X68701Y195890D01*
X68672Y195987D01*
X68653Y196046D01*
X68643Y196065D01*
X68565Y196221D01*
X68467Y196368D01*
X68370Y196494D01*
X68272Y196592D01*
X68194Y196680D01*
X68126Y196748D01*
X68077Y196787D01*
X68057Y196797D01*
X67901Y196904D01*
X67745Y196992D01*
X67580Y197070D01*
X67424Y197138D01*
X67297Y197187D01*
X67189Y197216D01*
X67150Y197226D01*
X67121Y197236D01*
X67102Y197245D01*
D02*
G37*
G36*
X65317Y226691D02*
X65102D01*
X64975Y226672D01*
X64741Y226623D01*
X64546Y226555D01*
X64380Y226477D01*
X64254Y226399D01*
X64166Y226331D01*
X64107Y226282D01*
X64088Y226272D01*
Y226262D01*
X64019Y226175D01*
X63951Y226087D01*
X63854Y225882D01*
X63776Y225677D01*
X63727Y225463D01*
X63698Y225277D01*
X63688Y225199D01*
Y225121D01*
X63678Y225063D01*
Y225024D01*
Y224994D01*
Y224985D01*
Y222390D01*
X68750D01*
Y223960D01*
X66868D01*
Y224819D01*
X66858Y224994D01*
X66848Y225151D01*
X66828Y225297D01*
X66799Y225433D01*
X66770Y225560D01*
X66731Y225677D01*
X66692Y225784D01*
X66653Y225872D01*
X66614Y225960D01*
X66575Y226028D01*
X66536Y226087D01*
X66507Y226136D01*
X66477Y226175D01*
X66458Y226204D01*
X66438Y226214D01*
Y226223D01*
X66351Y226301D01*
X66263Y226379D01*
X66068Y226496D01*
X65873Y226574D01*
X65678Y226633D01*
X65502Y226672D01*
X65434Y226682D01*
X65366D01*
X65317Y226691D01*
D02*
G37*
G36*
X68750Y221893D02*
X63678Y219991D01*
Y218274D01*
X68750Y216372D01*
Y217962D01*
X67911Y218225D01*
Y219991D01*
X68750Y220244D01*
Y221893D01*
D02*
G37*
G36*
X64927Y216187D02*
X63678D01*
Y211417D01*
X64927D01*
Y213017D01*
X68750D01*
Y214587D01*
X64927D01*
Y216187D01*
D02*
G37*
G36*
X67180Y183834D02*
X67102D01*
X66955Y183824D01*
X66809Y183805D01*
X66682Y183766D01*
X66575Y183737D01*
X66487Y183698D01*
X66419Y183659D01*
X66380Y183639D01*
X66360Y183629D01*
X66234Y183542D01*
X66126Y183444D01*
X66029Y183337D01*
X65951Y183230D01*
X65882Y183132D01*
X65834Y183054D01*
X65804Y182995D01*
X65795Y182986D01*
Y182976D01*
X65756Y182888D01*
X65707Y182791D01*
X65629Y182566D01*
X65551Y182322D01*
X65483Y182079D01*
X65453Y181971D01*
X65424Y181864D01*
X65405Y181766D01*
X65385Y181679D01*
X65366Y181610D01*
X65356Y181562D01*
X65346Y181523D01*
Y181513D01*
X65317Y181376D01*
X65278Y181259D01*
X65248Y181171D01*
X65219Y181103D01*
X65200Y181054D01*
X65180Y181015D01*
X65161Y181006D01*
Y180996D01*
X65122Y180957D01*
X65083Y180937D01*
X65014Y180898D01*
X64956Y180889D01*
X64936D01*
X64878Y180898D01*
X64819Y180908D01*
X64731Y180957D01*
X64673Y181006D01*
X64663Y181015D01*
X64654Y181025D01*
X64615Y181084D01*
X64585Y181142D01*
X64546Y181279D01*
Y181337D01*
X64536Y181386D01*
Y181415D01*
Y181425D01*
X64546Y181542D01*
X64556Y181649D01*
X64585Y181737D01*
X64615Y181805D01*
X64644Y181864D01*
X64663Y181913D01*
X64683Y181932D01*
X64693Y181942D01*
X64761Y182010D01*
X64839Y182069D01*
X64917Y182108D01*
X64995Y182147D01*
X65073Y182166D01*
X65131Y182186D01*
X65170Y182196D01*
X65190D01*
X65112Y183668D01*
X64966Y183649D01*
X64839Y183610D01*
X64712Y183581D01*
X64595Y183532D01*
X64400Y183434D01*
X64244Y183327D01*
X64117Y183220D01*
X64029Y183132D01*
X63980Y183073D01*
X63961Y183064D01*
Y183054D01*
X63893Y182956D01*
X63834Y182849D01*
X63746Y182615D01*
X63678Y182361D01*
X63639Y182127D01*
X63620Y182020D01*
X63610Y181913D01*
X63600Y181825D01*
Y181737D01*
X63590Y181679D01*
Y181620D01*
Y181591D01*
Y181581D01*
X63600Y181298D01*
X63620Y181054D01*
X63659Y180840D01*
X63688Y180664D01*
X63727Y180518D01*
X63746Y180459D01*
X63766Y180420D01*
X63776Y180381D01*
X63785Y180352D01*
X63795Y180342D01*
Y180333D01*
X63873Y180177D01*
X63961Y180040D01*
X64049Y179923D01*
X64137Y179825D01*
X64224Y179757D01*
X64283Y179699D01*
X64322Y179669D01*
X64341Y179660D01*
X64478Y179582D01*
X64605Y179533D01*
X64731Y179494D01*
X64839Y179465D01*
X64936Y179445D01*
X65014Y179435D01*
X65083D01*
X65190Y179445D01*
X65297Y179455D01*
X65483Y179504D01*
X65648Y179572D01*
X65795Y179660D01*
X65902Y179738D01*
X65990Y179806D01*
X66038Y179855D01*
X66058Y179874D01*
X66126Y179962D01*
X66195Y180060D01*
X66321Y180284D01*
X66429Y180528D01*
X66516Y180772D01*
X66555Y180889D01*
X66585Y180986D01*
X66614Y181084D01*
X66643Y181171D01*
X66653Y181240D01*
X66673Y181289D01*
X66682Y181327D01*
Y181337D01*
X66712Y181445D01*
X66731Y181552D01*
X66789Y181727D01*
X66838Y181864D01*
X66877Y181971D01*
X66916Y182049D01*
X66946Y182098D01*
X66965Y182127D01*
X66975Y182137D01*
X67033Y182196D01*
X67092Y182235D01*
X67150Y182274D01*
X67209Y182293D01*
X67258Y182303D01*
X67297Y182313D01*
X67326D01*
X67404Y182303D01*
X67472Y182283D01*
X67580Y182225D01*
X67628Y182186D01*
X67658Y182157D01*
X67677Y182137D01*
X67687Y182127D01*
X67736Y182059D01*
X67775Y181971D01*
X67804Y181893D01*
X67823Y181805D01*
X67833Y181737D01*
X67843Y181679D01*
Y181640D01*
Y181620D01*
X67833Y181464D01*
X67794Y181327D01*
X67745Y181210D01*
X67687Y181113D01*
X67638Y181035D01*
X67589Y180986D01*
X67550Y180947D01*
X67541Y180937D01*
X67463Y180889D01*
X67375Y180840D01*
X67189Y180781D01*
X67111Y180762D01*
X67043Y180752D01*
X67004Y180742D01*
X66985D01*
X67082Y179250D01*
X67219Y179270D01*
X67355Y179289D01*
X67609Y179357D01*
X67823Y179455D01*
X68009Y179552D01*
X68155Y179650D01*
X68214Y179689D01*
X68262Y179728D01*
X68301Y179757D01*
X68331Y179786D01*
X68340Y179796D01*
X68350Y179806D01*
X68438Y179904D01*
X68506Y180030D01*
X68574Y180157D01*
X68633Y180294D01*
X68721Y180586D01*
X68779Y180889D01*
X68799Y181025D01*
X68808Y181162D01*
X68818Y181279D01*
X68828Y181386D01*
X68838Y181474D01*
Y181532D01*
Y181581D01*
Y181591D01*
X68828Y181854D01*
X68808Y182088D01*
X68769Y182293D01*
X68731Y182469D01*
X68701Y182615D01*
X68682Y182664D01*
X68662Y182712D01*
X68653Y182752D01*
X68643Y182781D01*
X68633Y182791D01*
Y182800D01*
X68545Y182976D01*
X68448Y183122D01*
X68340Y183259D01*
X68243Y183366D01*
X68145Y183454D01*
X68077Y183512D01*
X68028Y183551D01*
X68009Y183561D01*
X67853Y183649D01*
X67687Y183717D01*
X67541Y183766D01*
X67394Y183805D01*
X67277Y183824D01*
X67180Y183834D01*
D02*
G37*
G36*
X64927Y189033D02*
X63678D01*
Y184263D01*
X64927D01*
Y185863D01*
X68750D01*
Y187433D01*
X64927D01*
Y189033D01*
D02*
G37*
G36*
X68750Y191374D02*
X63678D01*
Y189803D01*
X68750D01*
Y191374D01*
D02*
G37*
%LPD*%
G36*
X65375Y225160D02*
X65453Y225141D01*
X65522Y225111D01*
X65580Y225082D01*
X65629Y225043D01*
X65658Y225014D01*
X65678Y224994D01*
X65687Y224985D01*
X65736Y224907D01*
X65775Y224809D01*
X65804Y224702D01*
X65824Y224594D01*
X65834Y224497D01*
X65843Y224419D01*
Y224360D01*
Y224351D01*
Y224341D01*
Y223960D01*
X64712D01*
Y224399D01*
X64722Y224555D01*
X64741Y224682D01*
X64770Y224790D01*
X64800Y224868D01*
X64829Y224936D01*
X64858Y224975D01*
X64878Y224994D01*
X64888Y225004D01*
X64956Y225063D01*
X65024Y225102D01*
X65083Y225131D01*
X65151Y225151D01*
X65200Y225160D01*
X65248Y225170D01*
X65287D01*
X65375Y225160D01*
D02*
G37*
G36*
X66819Y218557D02*
X64995Y219113D01*
X66819Y219669D01*
Y218557D01*
D02*
G37*
%LPC*%
G36*
X316427Y213937D02*
X315178D01*
Y209167D01*
X316427D01*
Y210767D01*
X320250D01*
Y212337D01*
X316427D01*
Y213937D01*
D02*
G37*
G36*
X315178Y206661D02*
Y204925D01*
X316885Y203900D01*
X315178Y202886D01*
Y201150D01*
X318134Y203120D01*
X320250D01*
Y204690D01*
X318134D01*
X315178Y206661D01*
D02*
G37*
G36*
X320250Y219643D02*
X315178Y217741D01*
Y216024D01*
X320250Y214122D01*
Y215712D01*
X319411Y215975D01*
Y217741D01*
X320250Y217994D01*
Y219643D01*
D02*
G37*
G36*
Y229533D02*
X319099D01*
Y226831D01*
X318104D01*
Y229270D01*
X317070D01*
Y226831D01*
X316261D01*
Y229455D01*
X315178D01*
Y225261D01*
X320250D01*
Y229533D01*
D02*
G37*
G36*
X316817Y224442D02*
X316602D01*
X316475Y224422D01*
X316241Y224373D01*
X316046Y224305D01*
X315880Y224227D01*
X315754Y224149D01*
X315666Y224081D01*
X315607Y224032D01*
X315588Y224022D01*
Y224012D01*
X315520Y223925D01*
X315451Y223837D01*
X315354Y223632D01*
X315276Y223427D01*
X315227Y223213D01*
X315198Y223027D01*
X315188Y222949D01*
Y222871D01*
X315178Y222813D01*
Y222774D01*
Y222744D01*
Y222735D01*
Y220140D01*
X320250D01*
Y221710D01*
X318368D01*
Y222569D01*
X318358Y222744D01*
X318348Y222900D01*
X318328Y223047D01*
X318299Y223183D01*
X318270Y223310D01*
X318231Y223427D01*
X318192Y223534D01*
X318153Y223622D01*
X318114Y223710D01*
X318075Y223778D01*
X318036Y223837D01*
X318007Y223886D01*
X317977Y223925D01*
X317958Y223954D01*
X317938Y223964D01*
Y223973D01*
X317851Y224051D01*
X317763Y224129D01*
X317568Y224246D01*
X317373Y224324D01*
X317178Y224383D01*
X317002Y224422D01*
X316934Y224432D01*
X316866D01*
X316817Y224442D01*
D02*
G37*
G36*
X320250Y201140D02*
X317090Y199209D01*
X315178Y201052D01*
Y198965D01*
X317100Y197336D01*
X315178D01*
Y195766D01*
X320250D01*
Y197336D01*
X319021D01*
X318172Y198146D01*
X320250Y199209D01*
Y201140D01*
D02*
G37*
G36*
X318680Y181584D02*
X318602D01*
X318455Y181574D01*
X318309Y181555D01*
X318182Y181516D01*
X318075Y181487D01*
X317987Y181448D01*
X317919Y181409D01*
X317880Y181389D01*
X317860Y181379D01*
X317734Y181292D01*
X317626Y181194D01*
X317529Y181087D01*
X317451Y180979D01*
X317382Y180882D01*
X317334Y180804D01*
X317304Y180745D01*
X317295Y180736D01*
Y180726D01*
X317256Y180638D01*
X317207Y180541D01*
X317129Y180316D01*
X317051Y180072D01*
X316983Y179828D01*
X316953Y179721D01*
X316924Y179614D01*
X316905Y179516D01*
X316885Y179429D01*
X316866Y179360D01*
X316856Y179312D01*
X316846Y179273D01*
Y179263D01*
X316817Y179126D01*
X316778Y179009D01*
X316749Y178922D01*
X316719Y178853D01*
X316700Y178804D01*
X316680Y178765D01*
X316661Y178756D01*
Y178746D01*
X316622Y178707D01*
X316583Y178687D01*
X316514Y178648D01*
X316456Y178639D01*
X316436D01*
X316378Y178648D01*
X316319Y178658D01*
X316231Y178707D01*
X316173Y178756D01*
X316163Y178765D01*
X316154Y178775D01*
X316115Y178834D01*
X316085Y178892D01*
X316046Y179029D01*
Y179087D01*
X316036Y179136D01*
Y179165D01*
Y179175D01*
X316046Y179292D01*
X316056Y179399D01*
X316085Y179487D01*
X316115Y179555D01*
X316144Y179614D01*
X316163Y179663D01*
X316183Y179682D01*
X316192Y179692D01*
X316261Y179760D01*
X316339Y179819D01*
X316417Y179858D01*
X316495Y179897D01*
X316573Y179916D01*
X316631Y179936D01*
X316670Y179946D01*
X316690D01*
X316612Y181418D01*
X316466Y181399D01*
X316339Y181360D01*
X316212Y181331D01*
X316095Y181282D01*
X315900Y181184D01*
X315744Y181077D01*
X315617Y180970D01*
X315529Y180882D01*
X315480Y180823D01*
X315461Y180814D01*
Y180804D01*
X315393Y180706D01*
X315334Y180599D01*
X315246Y180365D01*
X315178Y180111D01*
X315139Y179877D01*
X315120Y179770D01*
X315110Y179663D01*
X315100Y179575D01*
Y179487D01*
X315090Y179429D01*
Y179370D01*
Y179341D01*
Y179331D01*
X315100Y179048D01*
X315120Y178804D01*
X315159Y178590D01*
X315188Y178414D01*
X315227Y178268D01*
X315246Y178209D01*
X315266Y178170D01*
X315276Y178131D01*
X315285Y178102D01*
X315295Y178092D01*
Y178083D01*
X315373Y177927D01*
X315461Y177790D01*
X315549Y177673D01*
X315637Y177575D01*
X315724Y177507D01*
X315783Y177449D01*
X315822Y177419D01*
X315841Y177410D01*
X315978Y177332D01*
X316105Y177283D01*
X316231Y177244D01*
X316339Y177215D01*
X316436Y177195D01*
X316514Y177185D01*
X316583D01*
X316690Y177195D01*
X316797Y177205D01*
X316983Y177254D01*
X317148Y177322D01*
X317295Y177410D01*
X317402Y177488D01*
X317490Y177556D01*
X317539Y177605D01*
X317558Y177624D01*
X317626Y177712D01*
X317695Y177810D01*
X317821Y178034D01*
X317929Y178278D01*
X318016Y178522D01*
X318055Y178639D01*
X318085Y178736D01*
X318114Y178834D01*
X318143Y178922D01*
X318153Y178990D01*
X318172Y179039D01*
X318182Y179077D01*
Y179087D01*
X318211Y179195D01*
X318231Y179302D01*
X318290Y179477D01*
X318338Y179614D01*
X318377Y179721D01*
X318416Y179799D01*
X318446Y179848D01*
X318465Y179877D01*
X318475Y179887D01*
X318533Y179946D01*
X318592Y179985D01*
X318650Y180024D01*
X318709Y180043D01*
X318758Y180053D01*
X318797Y180063D01*
X318826D01*
X318904Y180053D01*
X318972Y180033D01*
X319080Y179975D01*
X319128Y179936D01*
X319158Y179907D01*
X319177Y179887D01*
X319187Y179877D01*
X319236Y179809D01*
X319275Y179721D01*
X319304Y179643D01*
X319323Y179555D01*
X319333Y179487D01*
X319343Y179429D01*
Y179390D01*
Y179370D01*
X319333Y179214D01*
X319294Y179077D01*
X319245Y178960D01*
X319187Y178863D01*
X319138Y178785D01*
X319089Y178736D01*
X319050Y178697D01*
X319041Y178687D01*
X318962Y178639D01*
X318875Y178590D01*
X318689Y178531D01*
X318611Y178512D01*
X318543Y178502D01*
X318504Y178492D01*
X318485D01*
X318582Y177000D01*
X318719Y177020D01*
X318855Y177039D01*
X319109Y177107D01*
X319323Y177205D01*
X319509Y177302D01*
X319655Y177400D01*
X319714Y177439D01*
X319762Y177478D01*
X319801Y177507D01*
X319831Y177536D01*
X319840Y177546D01*
X319850Y177556D01*
X319938Y177654D01*
X320006Y177780D01*
X320074Y177907D01*
X320133Y178044D01*
X320221Y178336D01*
X320279Y178639D01*
X320299Y178775D01*
X320308Y178912D01*
X320318Y179029D01*
X320328Y179136D01*
X320338Y179224D01*
Y179282D01*
Y179331D01*
Y179341D01*
X320328Y179604D01*
X320308Y179838D01*
X320270Y180043D01*
X320230Y180219D01*
X320201Y180365D01*
X320182Y180414D01*
X320162Y180462D01*
X320153Y180501D01*
X320143Y180531D01*
X320133Y180541D01*
Y180550D01*
X320045Y180726D01*
X319948Y180872D01*
X319840Y181009D01*
X319743Y181116D01*
X319645Y181204D01*
X319577Y181262D01*
X319528Y181301D01*
X319509Y181311D01*
X319353Y181399D01*
X319187Y181467D01*
X319041Y181516D01*
X318894Y181555D01*
X318777Y181574D01*
X318680Y181584D01*
D02*
G37*
G36*
X316427Y186783D02*
X315178D01*
Y182013D01*
X316427D01*
Y183613D01*
X320250D01*
Y185183D01*
X316427D01*
Y186783D01*
D02*
G37*
G36*
X318602Y194995D02*
X318592D01*
X318172Y193620D01*
X318348Y193571D01*
X318494Y193523D01*
X318621Y193464D01*
X318728Y193406D01*
X318806Y193357D01*
X318865Y193318D01*
X318904Y193288D01*
X318914Y193279D01*
X318992Y193181D01*
X319050Y193084D01*
X319099Y192967D01*
X319128Y192859D01*
X319148Y192762D01*
X319158Y192684D01*
Y192625D01*
Y192616D01*
Y192606D01*
X319148Y192440D01*
X319109Y192294D01*
X319060Y192177D01*
X319002Y192069D01*
X318943Y191991D01*
X318894Y191933D01*
X318855Y191894D01*
X318846Y191884D01*
X318777Y191835D01*
X318709Y191796D01*
X318533Y191738D01*
X318348Y191689D01*
X318153Y191660D01*
X317977Y191640D01*
X317899D01*
X317831Y191630D01*
X317695D01*
X317451Y191640D01*
X317246Y191660D01*
X317080Y191699D01*
X316934Y191738D01*
X316826Y191777D01*
X316749Y191816D01*
X316709Y191835D01*
X316690Y191845D01*
X316612Y191903D01*
X316544Y191962D01*
X316446Y192089D01*
X316368Y192225D01*
X316310Y192352D01*
X316280Y192469D01*
X316271Y192567D01*
X316261Y192606D01*
Y192635D01*
Y192645D01*
Y192654D01*
X316280Y192820D01*
X316290Y192889D01*
X316310Y192957D01*
X316329Y193006D01*
X316339Y193045D01*
X316358Y193064D01*
Y193074D01*
X316446Y193211D01*
X316534Y193318D01*
X316573Y193357D01*
X316612Y193386D01*
X316631Y193396D01*
X316641Y193406D01*
X316690Y193435D01*
X316739Y193464D01*
X316846Y193513D01*
X316895Y193532D01*
X316934Y193552D01*
X316963Y193562D01*
X316973D01*
X316670Y194947D01*
X316388Y194830D01*
X316144Y194703D01*
X315939Y194566D01*
X315773Y194439D01*
X315646Y194313D01*
X315549Y194215D01*
X315520Y194176D01*
X315500Y194147D01*
X315480Y194137D01*
Y194127D01*
X315412Y194020D01*
X315354Y193903D01*
X315256Y193659D01*
X315188Y193406D01*
X315139Y193172D01*
X315120Y193054D01*
X315110Y192947D01*
X315100Y192859D01*
Y192772D01*
X315090Y192713D01*
Y192654D01*
Y192625D01*
Y192616D01*
X315100Y192391D01*
X315120Y192186D01*
X315149Y191991D01*
X315198Y191806D01*
X315246Y191640D01*
X315305Y191484D01*
X315364Y191338D01*
X315432Y191211D01*
X315490Y191104D01*
X315558Y190996D01*
X315617Y190918D01*
X315666Y190850D01*
X315715Y190792D01*
X315744Y190753D01*
X315763Y190733D01*
X315773Y190723D01*
X315910Y190606D01*
X316046Y190509D01*
X316202Y190421D01*
X316358Y190343D01*
X316514Y190275D01*
X316680Y190226D01*
X316992Y190148D01*
X317139Y190119D01*
X317275Y190099D01*
X317392Y190080D01*
X317500Y190070D01*
X317587Y190060D01*
X317704D01*
X318046Y190080D01*
X318348Y190119D01*
X318485Y190148D01*
X318611Y190177D01*
X318728Y190216D01*
X318836Y190255D01*
X318933Y190284D01*
X319011Y190323D01*
X319089Y190353D01*
X319148Y190382D01*
X319197Y190401D01*
X319226Y190421D01*
X319245Y190441D01*
X319255D01*
X319470Y190587D01*
X319645Y190743D01*
X319792Y190889D01*
X319909Y191035D01*
X319996Y191152D01*
X320055Y191250D01*
X320074Y191289D01*
X320094Y191318D01*
X320104Y191328D01*
Y191338D01*
X320182Y191552D01*
X320240Y191777D01*
X320279Y192001D01*
X320308Y192216D01*
X320328Y192401D01*
Y192489D01*
X320338Y192557D01*
Y192616D01*
Y192654D01*
Y192684D01*
Y192694D01*
X320328Y192937D01*
X320308Y193162D01*
X320279Y193347D01*
X320240Y193513D01*
X320201Y193640D01*
X320172Y193737D01*
X320153Y193796D01*
X320143Y193815D01*
X320065Y193971D01*
X319967Y194118D01*
X319870Y194244D01*
X319772Y194342D01*
X319694Y194430D01*
X319626Y194498D01*
X319577Y194537D01*
X319557Y194547D01*
X319401Y194654D01*
X319245Y194742D01*
X319080Y194820D01*
X318923Y194888D01*
X318797Y194937D01*
X318689Y194966D01*
X318650Y194976D01*
X318621Y194986D01*
X318602Y194995D01*
D02*
G37*
G36*
X320250Y189124D02*
X315178D01*
Y187553D01*
X320250D01*
Y189124D01*
D02*
G37*
%LPD*%
G36*
X318319Y216307D02*
X316495Y216863D01*
X318319Y217419D01*
Y216307D01*
D02*
G37*
G36*
X316875Y222910D02*
X316953Y222891D01*
X317022Y222861D01*
X317080Y222832D01*
X317129Y222793D01*
X317158Y222764D01*
X317178Y222744D01*
X317187Y222735D01*
X317236Y222657D01*
X317275Y222559D01*
X317304Y222452D01*
X317324Y222344D01*
X317334Y222247D01*
X317343Y222169D01*
Y222110D01*
Y222101D01*
Y222091D01*
Y221710D01*
X316212D01*
Y222149D01*
X316222Y222306D01*
X316241Y222432D01*
X316271Y222540D01*
X316300Y222618D01*
X316329Y222686D01*
X316358Y222725D01*
X316378Y222744D01*
X316388Y222754D01*
X316456Y222813D01*
X316524Y222852D01*
X316583Y222881D01*
X316651Y222900D01*
X316700Y222910D01*
X316749Y222920D01*
X316787D01*
X316875Y222910D01*
D02*
G37*
D55*
X368400Y600D02*
Y478600D01*
X1400Y600D02*
X368400D01*
X1400D02*
Y478600D01*
X368400D01*
D58*
X363000Y472498D02*
Y468333D01*
X362167Y467500D01*
X360501D01*
X359668Y468333D01*
Y472498D01*
X358002D02*
X354669D01*
Y471665D01*
X358002Y468333D01*
Y467500D01*
D100*
X66125Y335875D02*
D03*
D101*
Y95875D02*
D03*
X317625Y93625D02*
D03*
D102*
X317625Y295125D02*
D03*
M02*
