G04 Layer_Physical_Order=2*
G04 Layer_Color=16711680*
%FSLAX44Y44*%
%MOMM*%
G71*
G01*
G75*
%ADD45C,0.3000*%
%ADD46C,0.2500*%
%ADD48O,2.1000X1.0500*%
%ADD49O,2.0000X1.0000*%
%ADD50C,0.6000*%
%ADD51R,0.7600X2.0500*%
G36*
X231276Y392975D02*
X231696Y391598D01*
X206320Y366223D01*
X205569Y365098D01*
X205305Y363772D01*
Y340593D01*
X205239Y340549D01*
X204156Y338928D01*
X203776Y337016D01*
X204156Y335104D01*
X205239Y333484D01*
X206860Y332401D01*
X208772Y332020D01*
X210263Y332317D01*
X211534Y331558D01*
Y308577D01*
X211467Y308533D01*
X210384Y306912D01*
X210004Y305000D01*
X210384Y303088D01*
X211467Y301467D01*
X211534Y301423D01*
Y293000D01*
X211797Y291673D01*
X212549Y290549D01*
X223034Y280064D01*
Y188250D01*
X223297Y186923D01*
X224049Y185799D01*
X267299Y142549D01*
X268424Y141797D01*
X269750Y141533D01*
X292564D01*
X316020Y118078D01*
X316004Y118000D01*
X316241Y116807D01*
X315193Y115759D01*
X314000Y115996D01*
X312088Y115616D01*
X310467Y114533D01*
X309384Y112912D01*
X309004Y111000D01*
X309384Y109088D01*
X310467Y107467D01*
X312088Y106384D01*
X313565Y106090D01*
X313969Y105482D01*
X313493Y104402D01*
X313276Y104212D01*
X211747D01*
X211533Y104533D01*
X209912Y105616D01*
X208000Y105996D01*
X206088Y105616D01*
X204467Y104533D01*
X203384Y102912D01*
X203004Y101000D01*
X203384Y99088D01*
X204467Y97467D01*
X206088Y96384D01*
X208000Y96004D01*
X209912Y96384D01*
X211533Y97467D01*
X211747Y97788D01*
X331726D01*
X332212Y96615D01*
X317549Y81951D01*
X317395Y81722D01*
X317165Y81720D01*
X315941Y82595D01*
X315794Y83337D01*
X315032Y85176D01*
X314612Y85804D01*
X314008Y86409D01*
X313921Y86521D01*
X313809Y86608D01*
X313204Y87212D01*
X312576Y87632D01*
X310737Y88393D01*
X309995Y88541D01*
X309141D01*
X309000Y88560D01*
X308860Y88541D01*
X308005D01*
X307263Y88393D01*
X305424Y87632D01*
X304796Y87212D01*
X304191Y86607D01*
X304079Y86521D01*
X297079Y79521D01*
X296993Y79409D01*
X296747Y79163D01*
X296640Y79004D01*
X296505Y78869D01*
X296005Y78121D01*
X295973Y78080D01*
X295966Y78064D01*
X295957Y78049D01*
X295884Y77873D01*
X295777Y77714D01*
X295399Y76803D01*
X295362Y76616D01*
X295289Y76439D01*
X295285Y76419D01*
X295278Y76401D01*
X295270Y76345D01*
X295096Y75472D01*
X295096Y75280D01*
X295059Y75093D01*
Y74741D01*
X295041Y74600D01*
Y44721D01*
X293771Y44042D01*
X292912Y44616D01*
X291000Y44996D01*
X289088Y44616D01*
X287467Y43533D01*
X286384Y41912D01*
X286004Y40000D01*
X284796Y39562D01*
X283841D01*
X283164Y40832D01*
X283496Y42500D01*
X283116Y44412D01*
X282033Y46033D01*
X280412Y47116D01*
X278500Y47496D01*
X276588Y47116D01*
X274967Y46033D01*
X274923Y45967D01*
X234936D01*
X141467Y139436D01*
Y156972D01*
X142640Y157458D01*
X179549Y120549D01*
X180674Y119797D01*
X182000Y119533D01*
X218000D01*
X219327Y119797D01*
X220451Y120549D01*
X236451Y136549D01*
X237203Y137673D01*
X237467Y139000D01*
Y150173D01*
X237533Y150217D01*
X238616Y151838D01*
X238996Y153750D01*
X238616Y155662D01*
X237533Y157283D01*
X235912Y158366D01*
X234000Y158746D01*
X232088Y158366D01*
X230467Y157283D01*
X229384Y155662D01*
X229004Y153750D01*
X229384Y151838D01*
X230467Y150217D01*
X230534Y150173D01*
Y140436D01*
X216564Y126467D01*
X183436D01*
X135858Y174044D01*
X135703Y174827D01*
X134951Y175951D01*
X133967Y176936D01*
Y333173D01*
X134033Y333217D01*
X135116Y334838D01*
X135496Y336750D01*
X135116Y338662D01*
X134033Y340283D01*
X132412Y341366D01*
X130500Y341746D01*
X128588Y341366D01*
X126967Y340283D01*
X125884Y338662D01*
X125578Y337121D01*
X124548Y336649D01*
X124282Y336620D01*
X115217Y345686D01*
Y365248D01*
X116487Y365774D01*
X138063Y344198D01*
Y268000D01*
X138063Y268000D01*
X138210Y267259D01*
X138630Y266630D01*
X138630Y266630D01*
X182063Y223197D01*
Y167000D01*
X182210Y166259D01*
X182630Y165630D01*
X183259Y165210D01*
X184000Y165063D01*
X211000D01*
X211741Y165210D01*
X212370Y165630D01*
X212790Y166259D01*
X212937Y167000D01*
Y171000D01*
Y231000D01*
X212790Y231741D01*
X212370Y232370D01*
X212370Y232370D01*
X160937Y283802D01*
Y319000D01*
X160790Y319741D01*
X160370Y320370D01*
X160370Y320370D01*
X148937Y331802D01*
X148937Y348000D01*
X148790Y348741D01*
X148370Y349370D01*
X147741Y349790D01*
X147000Y349937D01*
X146803D01*
X125643Y371096D01*
X126090Y372313D01*
X126141Y372350D01*
X126207Y372361D01*
X128000Y372004D01*
X129912Y372384D01*
X131533Y373467D01*
X131577Y373533D01*
X180972D01*
X181458Y372360D01*
X159299Y350201D01*
X158547Y349077D01*
X158284Y347750D01*
Y332985D01*
X158547Y331658D01*
X159299Y330534D01*
X165284Y324549D01*
X166408Y323797D01*
X167735Y323533D01*
X169423D01*
X169467Y323467D01*
X171088Y322384D01*
X173000Y322004D01*
X174912Y322384D01*
X176533Y323467D01*
X177616Y325088D01*
X177996Y327000D01*
X177616Y328912D01*
X176533Y330533D01*
X174912Y331616D01*
X174035Y331790D01*
X173385Y333105D01*
X173766Y335016D01*
X173385Y336928D01*
X172302Y338549D01*
X172236Y338593D01*
Y344334D01*
X192822Y364919D01*
X193644Y364635D01*
X194033Y364335D01*
Y338077D01*
X193967Y338033D01*
X192884Y336412D01*
X192504Y334500D01*
X192884Y332588D01*
X193967Y330967D01*
X195588Y329884D01*
X197500Y329504D01*
X199412Y329884D01*
X201033Y330967D01*
X202116Y332588D01*
X202496Y334500D01*
X202116Y336412D01*
X201033Y338033D01*
X200967Y338077D01*
Y363064D01*
X230943Y393040D01*
X231276Y392975D01*
D02*
G37*
G36*
X231119Y354421D02*
X231384Y353088D01*
X232467Y351467D01*
X234088Y350384D01*
X236000Y350004D01*
X237912Y350384D01*
X239533Y351467D01*
X239747Y351788D01*
X244670D01*
X257788Y338670D01*
Y325000D01*
X258033Y323771D01*
X258729Y322729D01*
X271729Y309729D01*
X272771Y309033D01*
X274000Y308788D01*
X283253D01*
X283467Y308467D01*
X285088Y307384D01*
X286721Y307059D01*
X287332Y305874D01*
X268725Y287267D01*
X268029Y286225D01*
X267784Y284996D01*
Y179747D01*
X267463Y179533D01*
X266380Y177912D01*
X266000Y176000D01*
X266380Y174088D01*
X267463Y172467D01*
X269084Y171384D01*
X270996Y171004D01*
X272908Y171384D01*
X274529Y172467D01*
X275612Y174088D01*
X275992Y176000D01*
X275612Y177912D01*
X274529Y179533D01*
X274208Y179747D01*
Y193022D01*
X274445Y193209D01*
X276154Y192937D01*
X276467Y192467D01*
X278088Y191384D01*
X280000Y191004D01*
X281912Y191384D01*
X283533Y192467D01*
X284616Y194088D01*
X284996Y196000D01*
X284616Y197912D01*
X283533Y199533D01*
X282467Y200245D01*
Y240423D01*
X282533Y240467D01*
X283616Y242088D01*
X283996Y244000D01*
X283616Y245912D01*
X282533Y247533D01*
X280912Y248616D01*
X279000Y248996D01*
X277088Y248616D01*
X275467Y247533D01*
X274208Y247934D01*
Y283666D01*
X299621Y309079D01*
X300000Y309004D01*
X301912Y309384D01*
X303533Y310467D01*
X304616Y312088D01*
X304996Y314000D01*
X304616Y315912D01*
X303533Y317533D01*
X301983Y318568D01*
X301968Y318662D01*
X302445Y319609D01*
X303729Y319729D01*
X316729Y306729D01*
X317771Y306033D01*
X319000Y305788D01*
X330061D01*
X330467Y304533D01*
X329384Y302912D01*
X329004Y301000D01*
X329384Y299088D01*
X330467Y297467D01*
X330788Y297253D01*
Y282330D01*
X314729Y266271D01*
X314033Y265229D01*
X313788Y264000D01*
X312547Y264070D01*
X312416Y265067D01*
X311696Y266806D01*
X310550Y268299D01*
X309056Y269445D01*
X307317Y270166D01*
X305450Y270412D01*
X294950D01*
X293083Y270166D01*
X291344Y269445D01*
X289851Y268299D01*
X288705Y266806D01*
X287984Y265067D01*
X287738Y263200D01*
X287984Y261334D01*
X288705Y259594D01*
X289851Y258101D01*
X291344Y256954D01*
X293083Y256234D01*
X294950Y255988D01*
X305450D01*
X307317Y256234D01*
X309056Y256954D01*
X310550Y258101D01*
X311696Y259594D01*
X312416Y261334D01*
X312518Y262111D01*
X313788Y262027D01*
Y177973D01*
X312518Y177889D01*
X312416Y178666D01*
X311696Y180406D01*
X310550Y181899D01*
X309056Y183046D01*
X307317Y183766D01*
X305450Y184012D01*
X294950D01*
X293083Y183766D01*
X291344Y183046D01*
X289851Y181899D01*
X288705Y180406D01*
X287984Y178666D01*
X287738Y176800D01*
X287984Y174933D01*
X288705Y173194D01*
X289851Y171701D01*
X291344Y170555D01*
X293083Y169834D01*
X294950Y169588D01*
X305450D01*
X307317Y169834D01*
X309056Y170555D01*
X310550Y171701D01*
X311696Y173194D01*
X312416Y174933D01*
X312518Y175711D01*
X313788Y175627D01*
Y170000D01*
X314033Y168771D01*
X314729Y167729D01*
X339788Y142670D01*
Y111330D01*
X332670Y104212D01*
X329910D01*
X329384Y105482D01*
X335451Y111549D01*
X336203Y112673D01*
X336467Y114000D01*
Y121000D01*
X336203Y122327D01*
X335451Y123451D01*
X331981Y126922D01*
X331996Y127000D01*
X331616Y128912D01*
X330533Y130533D01*
X328912Y131616D01*
X327000Y131996D01*
X326922Y131980D01*
X301451Y157451D01*
X300327Y158203D01*
X299000Y158467D01*
X269436D01*
X236433Y191469D01*
Y287033D01*
X236169Y288360D01*
X235418Y289485D01*
X227980Y296922D01*
X227996Y297000D01*
X227616Y298912D01*
X226533Y300533D01*
X226467Y300577D01*
Y351564D01*
X229784Y354882D01*
X231119Y354421D01*
D02*
G37*
G36*
X136000Y436000D02*
X225000Y436000D01*
X226000Y435000D01*
X226000Y425000D01*
X219000Y418000D01*
X143000Y418000D01*
X143000Y385000D01*
X141000Y383000D01*
X123000Y383000D01*
X123000Y371000D01*
X146000Y348000D01*
X147000D01*
X147000Y331000D01*
X159000Y319000D01*
Y283000D01*
X211000Y231000D01*
Y171000D01*
Y167000D01*
X184000D01*
Y224000D01*
X140000Y268000D01*
Y345000D01*
X117000Y368000D01*
Y390000D01*
X133000Y406000D01*
Y418000D01*
X128557D01*
X127533Y419533D01*
X125912Y420616D01*
X124000Y420996D01*
X122088Y420616D01*
X121270Y420069D01*
X120000Y420748D01*
Y450341D01*
X121173Y450827D01*
X136000Y436000D01*
D02*
G37*
G36*
X215987Y414889D02*
X181564Y380467D01*
X142914D01*
X142529Y381290D01*
X142476Y381737D01*
X144370Y383630D01*
X144790Y384259D01*
X144937Y385000D01*
X144937Y385000D01*
X144937Y416063D01*
X215501Y416063D01*
X215987Y414889D01*
D02*
G37*
G36*
X360000Y450000D02*
X361000D01*
Y391000D01*
X310000D01*
Y453000D01*
X299000Y464000D01*
X262833Y464000D01*
X261912Y464616D01*
X260000Y464996D01*
X258088Y464616D01*
X257167Y464000D01*
X243000Y464000D01*
X217000Y438000D01*
X137000Y438000D01*
X121000Y454000D01*
X94000D01*
X93000Y455000D01*
X76000Y438000D01*
Y402000D01*
X52000D01*
X51000Y403000D01*
Y481000D01*
X108000D01*
X144000Y445000D01*
X210000D01*
X229000Y464000D01*
Y481000D01*
X360000D01*
Y450000D01*
D02*
G37*
G36*
X370000Y0D02*
X0Y-1D01*
X0Y481000D01*
X49063D01*
Y403000D01*
X49063Y403000D01*
X49210Y402259D01*
X49630Y401630D01*
X49630Y401630D01*
X50630Y400630D01*
X51259Y400210D01*
X52000Y400063D01*
X52000Y400063D01*
X70205D01*
X70500Y400004D01*
X70796Y400063D01*
X76000D01*
X76741Y400210D01*
X77370Y400630D01*
X77790Y401259D01*
X77937Y402000D01*
Y437198D01*
X93074Y452334D01*
X93259Y452210D01*
X94000Y452063D01*
X94000Y452063D01*
X117338D01*
X117643Y451720D01*
X118153Y450793D01*
X118063Y450341D01*
Y420748D01*
X118065Y420737D01*
X118057Y420583D01*
X117726Y419765D01*
X117475Y419513D01*
X117156Y419299D01*
X116673Y419203D01*
X115549Y418451D01*
X104049Y406951D01*
X103297Y405827D01*
X103034Y404500D01*
Y342500D01*
X103297Y341173D01*
X104049Y340049D01*
X112534Y331564D01*
Y167000D01*
X112797Y165673D01*
X113549Y164549D01*
X125020Y153078D01*
X125004Y153000D01*
X125384Y151088D01*
X126467Y149467D01*
X128088Y148384D01*
X130000Y148004D01*
X131912Y148384D01*
X133264Y149287D01*
X134534Y148853D01*
Y138000D01*
X134797Y136673D01*
X135549Y135549D01*
X198356Y72742D01*
X197546Y71755D01*
X197229Y71967D01*
X196000Y72212D01*
X172747D01*
X172533Y72533D01*
X170912Y73616D01*
X169000Y73996D01*
X167088Y73616D01*
X165467Y72533D01*
X164384Y70912D01*
X164004Y69000D01*
X164384Y67088D01*
X165467Y65467D01*
X167088Y64384D01*
X169000Y64004D01*
X170912Y64384D01*
X172533Y65467D01*
X172747Y65788D01*
X194670D01*
X226379Y34079D01*
X227421Y33383D01*
X228650Y33138D01*
X287350D01*
X288579Y33383D01*
X289621Y34079D01*
X290621Y35079D01*
X291000Y35004D01*
X292912Y35384D01*
X293771Y35958D01*
X295041Y35279D01*
Y15600D01*
X295059Y15459D01*
Y14605D01*
X295207Y13863D01*
X295968Y12024D01*
X296388Y11396D01*
X296993Y10791D01*
X297079Y10679D01*
X297191Y10593D01*
X297796Y9988D01*
X298424Y9568D01*
X300263Y8806D01*
X301005Y8659D01*
X301859D01*
X302000Y8640D01*
X302141Y8659D01*
X302995D01*
X303737Y8806D01*
X305576Y9568D01*
X306204Y9988D01*
X306809Y10592D01*
X306921Y10679D01*
X307008Y10791D01*
X307612Y11396D01*
X308032Y12024D01*
X308794Y13863D01*
X308941Y14605D01*
Y15459D01*
X308960Y15600D01*
Y71717D01*
X313921Y76679D01*
X314007Y76791D01*
X314612Y77396D01*
X315032Y78024D01*
X315264Y78583D01*
X316534Y78331D01*
Y70577D01*
X316467Y70533D01*
X315384Y68912D01*
X315004Y67000D01*
X315384Y65088D01*
X316467Y63467D01*
X318088Y62384D01*
X320000Y62004D01*
X321912Y62384D01*
X323533Y63467D01*
X324616Y65088D01*
X324996Y67000D01*
X324616Y68912D01*
X323533Y70533D01*
X323467Y70577D01*
Y78064D01*
X353451Y108049D01*
X354203Y109173D01*
X354467Y110500D01*
Y149000D01*
X354203Y150327D01*
X353451Y151451D01*
X336243Y168659D01*
X336837Y169862D01*
X337000Y169841D01*
X347000D01*
X348801Y170078D01*
X350480Y170773D01*
X351921Y171879D01*
X353027Y173320D01*
X353722Y174999D01*
X353960Y176800D01*
X353722Y178601D01*
X353027Y180280D01*
X351921Y181721D01*
X350480Y182827D01*
X348801Y183522D01*
X347000Y183759D01*
X337000D01*
X335199Y183522D01*
X333520Y182827D01*
X332079Y181721D01*
X330973Y180280D01*
X330278Y178601D01*
X330041Y176800D01*
X330062Y176637D01*
X328859Y176043D01*
X327467Y177436D01*
Y262564D01*
X328859Y263957D01*
X330062Y263363D01*
X330041Y263200D01*
X330278Y261399D01*
X330973Y259720D01*
X332079Y258279D01*
X333520Y257173D01*
X335199Y256478D01*
X337000Y256241D01*
X347000D01*
X348801Y256478D01*
X350480Y257173D01*
X351921Y258279D01*
X353027Y259720D01*
X353722Y261399D01*
X353960Y263200D01*
X353722Y265001D01*
X353027Y266680D01*
X351921Y268121D01*
X350480Y269227D01*
X348801Y269922D01*
X347000Y270159D01*
X337000D01*
X336837Y270138D01*
X336243Y271341D01*
X339436Y274533D01*
X342423D01*
X342467Y274467D01*
X344088Y273384D01*
X346000Y273004D01*
X347912Y273384D01*
X349533Y274467D01*
X350616Y276088D01*
X350996Y278000D01*
X350616Y279912D01*
X349533Y281533D01*
X347912Y282616D01*
X346000Y282996D01*
X344088Y282616D01*
X342467Y281533D01*
X342423Y281467D01*
X338000D01*
X337212Y282113D01*
Y297253D01*
X337533Y297467D01*
X338616Y299088D01*
X338996Y301000D01*
X338616Y302912D01*
X337533Y304533D01*
X335912Y305616D01*
X334279Y305940D01*
X333867Y306740D01*
X333778Y307236D01*
X340330Y313788D01*
X344253D01*
X344467Y313467D01*
X346088Y312384D01*
X348000Y312004D01*
X349912Y312384D01*
X351533Y313467D01*
X352616Y315088D01*
X352996Y317000D01*
X352616Y318912D01*
X351533Y320533D01*
X349912Y321616D01*
X348000Y321996D01*
X346088Y321616D01*
X344467Y320533D01*
X344253Y320212D01*
X339000D01*
X337771Y319967D01*
X336729Y319271D01*
X329670Y312212D01*
X324939D01*
X324533Y313467D01*
X325616Y315088D01*
X325996Y317000D01*
X325616Y318912D01*
X324533Y320533D01*
X322912Y321616D01*
X321000Y321996D01*
X320922Y321980D01*
X309451Y333451D01*
X308327Y334203D01*
X307000Y334467D01*
X289436D01*
X275581Y348322D01*
X275865Y349143D01*
X276165Y349533D01*
X287000D01*
X288327Y349797D01*
X289451Y350549D01*
X300922Y362020D01*
X301000Y362004D01*
X302912Y362384D01*
X304533Y363467D01*
X305616Y365088D01*
X305996Y367000D01*
X305616Y368912D01*
X305381Y369263D01*
X306060Y370533D01*
X309564D01*
X311020Y369078D01*
X311004Y369000D01*
X311384Y367088D01*
X312467Y365467D01*
X314088Y364384D01*
X316000Y364004D01*
X317912Y364384D01*
X319533Y365467D01*
X319577Y365533D01*
X329423D01*
X329467Y365467D01*
X331088Y364384D01*
X333000Y364004D01*
X334912Y364384D01*
X336533Y365467D01*
X337616Y367088D01*
X337996Y369000D01*
X337616Y370912D01*
X336533Y372533D01*
X334912Y373616D01*
X333000Y373996D01*
X331088Y373616D01*
X329467Y372533D01*
X329423Y372467D01*
X319577D01*
X319533Y372533D01*
X317912Y373616D01*
X316000Y373996D01*
X315922Y373980D01*
X313451Y376451D01*
X312327Y377203D01*
X311000Y377467D01*
X294000D01*
X292673Y377203D01*
X291549Y376451D01*
X284078Y368980D01*
X284000Y368996D01*
X282088Y368616D01*
X280467Y367533D01*
X279384Y365912D01*
X279004Y364000D01*
X279384Y362088D01*
X280467Y360467D01*
X282088Y359384D01*
X284000Y359004D01*
X285912Y359384D01*
X287533Y360467D01*
X288616Y362088D01*
X288996Y364000D01*
X288981Y364078D01*
X294826Y369924D01*
X295478Y369841D01*
X295699Y369614D01*
X296301Y368491D01*
X296004Y367000D01*
X296020Y366922D01*
X285564Y356467D01*
X277436D01*
X263467Y370436D01*
Y386698D01*
X263203Y388024D01*
X262856Y388543D01*
X263535Y389813D01*
X267800D01*
X268541Y389960D01*
X269170Y390380D01*
X269590Y391009D01*
X269737Y391750D01*
X270963D01*
X271110Y391009D01*
X271530Y390380D01*
X272159Y389960D01*
X272900Y389813D01*
X280500D01*
X281241Y389960D01*
X281870Y390380D01*
X282290Y391009D01*
X282437Y391750D01*
X283663D01*
X283810Y391009D01*
X284230Y390380D01*
X284859Y389960D01*
X285600Y389813D01*
X293200D01*
X293941Y389960D01*
X294570Y390380D01*
X294990Y391009D01*
X295137Y391750D01*
Y412250D01*
X294990Y412991D01*
X294570Y413620D01*
X293941Y414040D01*
X293200Y414187D01*
X285600D01*
X284859Y414040D01*
X284230Y413620D01*
X283810Y412991D01*
X283663Y412250D01*
X282437D01*
X282290Y412991D01*
X281870Y413620D01*
X281241Y414040D01*
X280500Y414187D01*
X279990D01*
X279903Y414627D01*
X279151Y415751D01*
X272451Y422451D01*
X271327Y423203D01*
X270000Y423467D01*
X244165D01*
X243639Y424737D01*
X254436Y435533D01*
X258263D01*
Y428750D01*
X258410Y428009D01*
X258830Y427380D01*
X259459Y426960D01*
X260200Y426813D01*
X267800D01*
X268541Y426960D01*
X269170Y427380D01*
X269590Y428009D01*
X269737Y428750D01*
X270963D01*
X271110Y428009D01*
X271530Y427380D01*
X272159Y426960D01*
X272900Y426813D01*
X280500D01*
X281241Y426960D01*
X281870Y427380D01*
X282290Y428009D01*
X282437Y428750D01*
X283663D01*
X283810Y428009D01*
X284230Y427380D01*
X284859Y426960D01*
X285600Y426813D01*
X293200D01*
X293941Y426960D01*
X294570Y427380D01*
X294990Y428009D01*
X295137Y428750D01*
Y449250D01*
X294990Y449991D01*
X294570Y450620D01*
X293941Y451040D01*
X293200Y451187D01*
X292867D01*
Y454967D01*
X293616Y456088D01*
X293996Y458000D01*
X293616Y459912D01*
X293027Y460793D01*
X293706Y462063D01*
X298198D01*
X308063Y452197D01*
Y391000D01*
X308210Y390259D01*
X308630Y389630D01*
X309259Y389210D01*
X310000Y389063D01*
X361000D01*
X361741Y389210D01*
X362370Y389630D01*
X362790Y390259D01*
X362937Y391000D01*
Y450000D01*
X362790Y450741D01*
X362370Y451370D01*
X361937Y451659D01*
Y481000D01*
X370000D01*
X370000Y0D01*
D02*
G37*
%LPC*%
G36*
X305578Y196314D02*
X304822D01*
X303554Y196061D01*
X302856Y195772D01*
X301781Y195054D01*
X301246Y194519D01*
X300528Y193444D01*
X300239Y192746D01*
Y192746D01*
X299986Y191478D01*
Y191287D01*
X299949Y191100D01*
X299986Y190913D01*
Y190722D01*
X300239Y189454D01*
X300528Y188756D01*
X301246Y187681D01*
X301781Y187146D01*
X302856Y186428D01*
X303554Y186139D01*
X303554D01*
X304822Y185886D01*
X305578D01*
X306846Y186139D01*
X307544Y186428D01*
X308619Y187146D01*
X309154Y187681D01*
X309872Y188756D01*
X310161Y189454D01*
Y189454D01*
X310414Y190722D01*
Y190913D01*
X310451Y191100D01*
X310414Y191287D01*
Y191478D01*
X310161Y192746D01*
X309872Y193444D01*
X309154Y194519D01*
X308619Y195054D01*
X307544Y195772D01*
X306846Y196061D01*
X306846D01*
X305578Y196314D01*
D02*
G37*
G36*
X251000Y279996D02*
X249088Y279616D01*
X247467Y278533D01*
X246384Y276912D01*
X246004Y275000D01*
X246384Y273088D01*
X247467Y271467D01*
X247533Y271423D01*
Y260436D01*
X243078Y255980D01*
X243000Y255996D01*
X241088Y255616D01*
X239467Y254533D01*
X238384Y252912D01*
X238004Y251000D01*
X238384Y249088D01*
X239467Y247467D01*
X241088Y246384D01*
X243000Y246004D01*
X244912Y246384D01*
X246533Y247467D01*
X247616Y249088D01*
X247996Y251000D01*
X247980Y251078D01*
X253451Y256549D01*
X254203Y257673D01*
X254467Y259000D01*
Y271423D01*
X254533Y271467D01*
X255616Y273088D01*
X255996Y275000D01*
X255616Y276912D01*
X254533Y278533D01*
X252912Y279616D01*
X251000Y279996D01*
D02*
G37*
G36*
X305578Y254114D02*
X304822D01*
X303554Y253861D01*
X302856Y253572D01*
X301781Y252854D01*
X301246Y252319D01*
X300528Y251244D01*
X300239Y250546D01*
Y250546D01*
X299986Y249278D01*
Y249087D01*
X299949Y248900D01*
X299986Y248713D01*
Y248522D01*
X300239Y247254D01*
X300528Y246556D01*
X301246Y245481D01*
X301781Y244946D01*
X302856Y244228D01*
X303554Y243939D01*
X303554D01*
X304822Y243686D01*
X305578D01*
X306846Y243939D01*
X307544Y244228D01*
X308619Y244946D01*
X309154Y245481D01*
X309872Y246556D01*
X310161Y247254D01*
Y247254D01*
X310414Y248522D01*
Y248713D01*
X310451Y248900D01*
X310414Y249087D01*
Y249278D01*
X310161Y250546D01*
X309872Y251244D01*
X309154Y252319D01*
X308619Y252854D01*
X307544Y253572D01*
X306846Y253861D01*
X306846D01*
X305578Y254114D01*
D02*
G37*
G36*
X346000Y88560D02*
X345859Y88541D01*
X345005D01*
X344263Y88393D01*
X342424Y87632D01*
X341796Y87212D01*
X341191Y86607D01*
X341079Y86521D01*
X340993Y86409D01*
X340388Y85804D01*
X339968Y85176D01*
X339207Y83337D01*
X339059Y82595D01*
Y81741D01*
X339040Y81600D01*
X339059Y81459D01*
Y80605D01*
X339207Y79863D01*
X339968Y78024D01*
X340388Y77396D01*
X340993Y76791D01*
X341079Y76679D01*
X346041Y71717D01*
Y17600D01*
X346059Y17459D01*
Y16605D01*
X346207Y15863D01*
X346968Y14024D01*
X347388Y13396D01*
X347993Y12791D01*
X348079Y12679D01*
X348191Y12593D01*
X348796Y11988D01*
X349424Y11568D01*
X351263Y10806D01*
X352005Y10659D01*
X352859D01*
X353000Y10640D01*
X353141Y10659D01*
X353995D01*
X354737Y10806D01*
X356576Y11568D01*
X357204Y11988D01*
X357809Y12593D01*
X357921Y12679D01*
X358008Y12791D01*
X358612Y13396D01*
X359032Y14024D01*
X359794Y15863D01*
X359941Y16605D01*
Y17459D01*
X359960Y17600D01*
Y74600D01*
X359941Y74741D01*
Y75093D01*
X359904Y75280D01*
X359904Y75472D01*
X359730Y76345D01*
X359723Y76401D01*
X359715Y76419D01*
X359711Y76439D01*
X359638Y76616D01*
X359601Y76803D01*
X359223Y77714D01*
X359117Y77873D01*
X359044Y78049D01*
X359034Y78064D01*
X359027Y78080D01*
X358995Y78121D01*
X358495Y78869D01*
X358360Y79004D01*
X358254Y79163D01*
X358007Y79409D01*
X357921Y79521D01*
X350921Y86521D01*
X350809Y86607D01*
X350204Y87212D01*
X349576Y87632D01*
X347737Y88393D01*
X346995Y88541D01*
X346141D01*
X346000Y88560D01*
D02*
G37*
G36*
X78000Y392996D02*
X76088Y392616D01*
X74467Y391533D01*
X73384Y389912D01*
X73004Y388000D01*
X73384Y386088D01*
X74467Y384467D01*
X76088Y383384D01*
X78000Y383004D01*
X79912Y383384D01*
X81533Y384467D01*
X81577Y384533D01*
X91422D01*
X91467Y384467D01*
X93088Y383383D01*
X94999Y383003D01*
X96911Y383383D01*
X98532Y384467D01*
X99615Y386087D01*
X99995Y387999D01*
X99615Y389911D01*
X98532Y391532D01*
X96911Y392615D01*
X94999Y392995D01*
X93088Y392615D01*
X91467Y391532D01*
X91423Y391467D01*
X81577D01*
X81533Y391533D01*
X79912Y392616D01*
X78000Y392996D01*
D02*
G37*
%LPD*%
D45*
X279000Y197000D02*
Y244000D01*
Y197000D02*
X280000Y196000D01*
X316000Y369000D02*
X333000D01*
X289400Y439000D02*
Y457600D01*
X289000Y458000D02*
X289400Y457600D01*
X243000Y251000D02*
X251000Y259000D01*
Y275000D01*
X311000Y374000D02*
X316000Y369000D01*
X284000Y364000D02*
X294000Y374000D01*
X311000D01*
X232000Y362000D02*
X245000D01*
X307000Y331000D02*
X321000Y317000D01*
X276700Y402000D02*
Y413300D01*
X270000Y420000D02*
X276700Y413300D01*
X243000Y420000D02*
X270000D01*
X118000Y416000D02*
X124000D01*
X116000Y167000D02*
Y333000D01*
Y167000D02*
X130000Y153000D01*
X294000Y145000D02*
X321000Y118000D01*
X314000Y111000D02*
X318000Y107000D01*
X326000D01*
X333000Y114000D01*
Y121000D01*
X327000Y127000D02*
X333000Y121000D01*
X299000Y155000D02*
X327000Y127000D01*
X268000Y155000D02*
X299000D01*
X260000Y454000D02*
Y460000D01*
X183000Y377000D02*
X260000Y454000D01*
X128000Y377000D02*
X183000D01*
X137000Y397000D02*
Y426000D01*
X136000Y427000D02*
X137000Y426000D01*
X78000Y388000D02*
X94999D01*
X94999Y387999D01*
X338000Y278000D02*
X346000D01*
X324000Y176000D02*
Y264000D01*
X338000Y278000D01*
X253000Y439000D02*
X264000D01*
X252000Y405000D02*
Y411000D01*
Y405000D02*
X255000Y402000D01*
X264000D01*
X324000Y176000D02*
X351000Y149000D01*
X182000Y123000D02*
X218000D01*
X132000Y173000D02*
X182000Y123000D01*
X254000Y365000D02*
X288000Y331000D01*
X307000D01*
X260000Y369000D02*
X276000Y353000D01*
X287000D01*
X301000Y367000D01*
X123000Y174000D02*
Y333000D01*
Y174000D02*
X138000Y159000D01*
Y138000D02*
Y159000D01*
X215000Y305000D02*
Y334090D01*
X215300Y334390D01*
X223000Y297000D02*
Y353000D01*
X232000Y362000D01*
X215300Y334390D02*
Y339609D01*
X215000Y339910D02*
X215300Y339609D01*
X197500Y334500D02*
Y364500D01*
X127750Y385000D02*
Y387750D01*
X137000Y397000D01*
X254000Y365000D02*
Y385910D01*
X260000Y369000D02*
Y386698D01*
X197500Y364500D02*
X230100Y397100D01*
X208772Y363772D02*
X237300Y392300D01*
X215000Y339910D02*
Y356000D01*
X245000Y386000D01*
X237300Y392300D02*
X242249D01*
X242349Y392400D01*
X247651D01*
X251400Y388651D01*
Y388509D02*
Y388651D01*
Y388509D02*
X254000Y385910D01*
X230100Y397100D02*
X235170D01*
X235270Y397200D01*
X240219D01*
X240319Y397300D01*
X249681D01*
X256300Y390681D01*
Y390539D02*
Y390681D01*
Y390539D02*
X258900Y387939D01*
Y387798D02*
Y387939D01*
Y387798D02*
X260000Y386698D01*
X208772Y337016D02*
Y363772D01*
X168770Y335016D02*
Y345770D01*
X243000Y420000D01*
X161750Y347750D02*
X253000Y439000D01*
X161750Y332985D02*
X167735Y327000D01*
X161750Y332985D02*
Y347750D01*
X167735Y327000D02*
X173000D01*
X233500Y42500D02*
X278500D01*
X138000Y138000D02*
X233500Y42500D01*
X218000Y123000D02*
X234000Y139000D01*
Y153750D01*
X269750Y145000D02*
X294000D01*
X215000Y293000D02*
Y305000D01*
X232967Y190033D02*
X268000Y155000D01*
X232967Y190033D02*
Y287033D01*
X223000Y297000D02*
X232967Y287033D01*
X226500Y188250D02*
X269750Y145000D01*
X226500Y188250D02*
Y281500D01*
X215000Y293000D02*
X226500Y281500D01*
X320000Y67000D02*
Y79500D01*
X351000Y110500D01*
Y149000D01*
X132000Y173000D02*
X132500Y173500D01*
X130500Y175500D02*
X132500Y173500D01*
X130500Y175500D02*
Y336750D01*
X111750Y344250D02*
X123000Y333000D01*
X111750Y344250D02*
Y392750D01*
X124000Y405000D01*
X106500Y342500D02*
X116000Y333000D01*
X106500Y342500D02*
Y404500D01*
X118000Y416000D01*
D46*
X274000Y312000D02*
X287000D01*
X261000Y325000D02*
X274000Y312000D01*
X261000Y325000D02*
Y340000D01*
X246000Y355000D02*
X261000Y340000D01*
X236000Y355000D02*
X246000D01*
X281000Y323000D02*
X281050Y323050D01*
X304950D01*
X331000Y309000D02*
X339000Y317000D01*
X319000Y309000D02*
X331000D01*
X304950Y323050D02*
X319000Y309000D01*
X334000Y281000D02*
Y301000D01*
X208000Y101000D02*
X334000D01*
X317000Y170000D02*
Y264000D01*
X334000Y281000D01*
X334000Y101000D02*
X343000Y110000D01*
Y144000D01*
X317000Y170000D02*
X343000Y144000D01*
X169000Y69000D02*
X196000D01*
X339000Y317000D02*
X348000D01*
X228650Y36350D02*
X287350D01*
X196000Y69000D02*
X228650Y36350D01*
X287350D02*
X291000Y40000D01*
X270996Y176000D02*
Y284996D01*
X300000Y314000D01*
D48*
X300200Y263200D02*
D03*
Y176800D02*
D03*
D49*
X342000Y263200D02*
D03*
Y176800D02*
D03*
D50*
X279000Y244000D02*
D03*
X280000Y196000D02*
D03*
X316000Y369000D02*
D03*
X284000Y364000D02*
D03*
X333000Y369000D02*
D03*
X281000Y323000D02*
D03*
X320000Y67000D02*
D03*
X291000Y40000D02*
D03*
X300000Y314000D02*
D03*
X289000Y458000D02*
D03*
X190000Y432000D02*
D03*
X130000Y153000D02*
D03*
X251000Y275000D02*
D03*
X243000Y251000D02*
D03*
X236000Y355000D02*
D03*
X245000Y362000D02*
D03*
Y386000D02*
D03*
X287000Y312000D02*
D03*
X301000Y367000D02*
D03*
X321000Y317000D02*
D03*
X260000Y460000D02*
D03*
X252000Y411000D02*
D03*
X124000Y416000D02*
D03*
Y405000D02*
D03*
X206000Y175000D02*
D03*
X321000Y118000D02*
D03*
X314000Y111000D02*
D03*
X223000Y297000D02*
D03*
X215000Y305000D02*
D03*
X70500Y405000D02*
D03*
Y415000D02*
D03*
Y425000D02*
D03*
X68000Y432500D02*
D03*
X58000D02*
D03*
X340000Y397000D02*
D03*
X354000D02*
D03*
X334000Y301000D02*
D03*
X327000Y127000D02*
D03*
X148000Y324000D02*
D03*
X215000Y431000D02*
D03*
X221000Y425000D02*
D03*
X130000Y430000D02*
D03*
X128000Y377000D02*
D03*
X94999Y387999D02*
D03*
X78000Y388000D02*
D03*
X189000Y189000D02*
D03*
X203000D02*
D03*
X346000Y278000D02*
D03*
X222000Y69000D02*
D03*
X235000D02*
D03*
X249000D02*
D03*
X248000Y55000D02*
D03*
X235000Y57000D02*
D03*
X159000Y34000D02*
D03*
X162000Y22500D02*
D03*
X146250Y26250D02*
D03*
X151500Y15750D02*
D03*
X169000Y69000D02*
D03*
X246000Y325000D02*
D03*
X185500Y337500D02*
D03*
X19000Y243000D02*
D03*
X20000Y151000D02*
D03*
X19000Y59000D02*
D03*
X20000Y332000D02*
D03*
X77000Y173000D02*
D03*
Y164000D02*
D03*
X308000Y202000D02*
D03*
X309000Y238000D02*
D03*
X282000Y257000D02*
D03*
X171000Y192000D02*
D03*
X172000Y207000D02*
D03*
X170000Y221000D02*
D03*
Y158000D02*
D03*
X108000Y310000D02*
D03*
Y292500D02*
D03*
Y277500D02*
D03*
X197500Y334500D02*
D03*
X190500Y322500D02*
D03*
X173000Y327000D02*
D03*
X205500Y317500D02*
D03*
X348000Y317000D02*
D03*
X272000Y384000D02*
D03*
X331000Y381000D02*
D03*
X354000Y382000D02*
D03*
X199000Y258000D02*
D03*
X100000Y429000D02*
D03*
X86000D02*
D03*
X28000Y420000D02*
D03*
X15500Y435000D02*
D03*
Y447500D02*
D03*
X361000Y347000D02*
D03*
X286000Y345000D02*
D03*
X190500Y405000D02*
D03*
X175500D02*
D03*
Y392500D02*
D03*
X188000Y393000D02*
D03*
X160500Y405000D02*
D03*
Y392500D02*
D03*
X168000Y367500D02*
D03*
X127750Y385000D02*
D03*
X208772Y337016D02*
D03*
X168770Y335016D02*
D03*
X278500Y42500D02*
D03*
X208000Y101000D02*
D03*
X234000Y153750D02*
D03*
X162250Y127250D02*
D03*
X270996Y176000D02*
D03*
X307000Y94000D02*
D03*
X156750Y367000D02*
D03*
X130500Y336750D02*
D03*
X97250Y380000D02*
D03*
X323750Y325250D02*
D03*
D51*
X314800Y402000D02*
D03*
X302100D02*
D03*
X289400D02*
D03*
X276700D02*
D03*
X264000D02*
D03*
X314800Y439000D02*
D03*
X302100D02*
D03*
X289400D02*
D03*
X276700D02*
D03*
X264000D02*
D03*
M02*
