G04 Layer_Color=255*
%FSLAX44Y44*%
%MOMM*%
G71*
G01*
G75*
%ADD10R,0.9500X0.9000*%
G04:AMPARAMS|DCode=11|XSize=0.99mm|YSize=0.22mm|CornerRadius=0.022mm|HoleSize=0mm|Usage=FLASHONLY|Rotation=270.000|XOffset=0mm|YOffset=0mm|HoleType=Round|Shape=RoundedRectangle|*
%AMROUNDEDRECTD11*
21,1,0.9900,0.1760,0,0,270.0*
21,1,0.9460,0.2200,0,0,270.0*
1,1,0.0440,-0.0880,-0.4730*
1,1,0.0440,-0.0880,0.4730*
1,1,0.0440,0.0880,0.4730*
1,1,0.0440,0.0880,-0.4730*
%
%ADD11ROUNDEDRECTD11*%
%ADD12R,0.9000X1.5000*%
%ADD13R,2.7500X2.6500*%
%ADD14R,0.3000X0.7500*%
%ADD15R,0.7500X0.3000*%
%ADD16R,0.9000X0.9500*%
G04:AMPARAMS|DCode=17|XSize=0.8mm|YSize=0.3mm|CornerRadius=0.0135mm|HoleSize=0mm|Usage=FLASHONLY|Rotation=90.000|XOffset=0mm|YOffset=0mm|HoleType=Round|Shape=RoundedRectangle|*
%AMROUNDEDRECTD17*
21,1,0.8000,0.2730,0,0,90.0*
21,1,0.7730,0.3000,0,0,90.0*
1,1,0.0270,0.1365,0.3865*
1,1,0.0270,0.1365,-0.3865*
1,1,0.0270,-0.1365,-0.3865*
1,1,0.0270,-0.1365,0.3865*
%
%ADD17ROUNDEDRECTD17*%
G04:AMPARAMS|DCode=18|XSize=0.8mm|YSize=0.3mm|CornerRadius=0.0135mm|HoleSize=0mm|Usage=FLASHONLY|Rotation=180.000|XOffset=0mm|YOffset=0mm|HoleType=Round|Shape=RoundedRectangle|*
%AMROUNDEDRECTD18*
21,1,0.8000,0.2730,0,0,180.0*
21,1,0.7730,0.3000,0,0,180.0*
1,1,0.0270,-0.3865,0.1365*
1,1,0.0270,0.3865,0.1365*
1,1,0.0270,0.3865,-0.1365*
1,1,0.0270,-0.3865,-0.1365*
%
%ADD18ROUNDEDRECTD18*%
%ADD19R,5.0000X5.0000*%
%ADD20R,2.5000X1.7000*%
%ADD21R,2.2000X2.6000*%
%ADD22R,3.2000X1.6000*%
%ADD23R,1.1000X0.6000*%
%ADD24R,1.3500X2.2000*%
%ADD25R,0.9000X1.3000*%
%ADD26R,1.3000X0.9000*%
%ADD27R,0.6000X1.1000*%
%ADD28R,1.1000X1.7000*%
%ADD29R,0.3000X0.7000*%
%ADD30R,2.3500X1.5800*%
%ADD31R,0.4500X0.4900*%
%ADD32R,1.5000X1.0000*%
%ADD33R,0.9000X0.8000*%
%ADD34R,0.3000X1.6000*%
%ADD35R,0.8000X0.9000*%
%ADD36R,1.1500X0.3000*%
%ADD37R,1.1500X0.6000*%
%ADD38R,0.7000X0.7000*%
%ADD39R,1.0500X1.4000*%
%ADD40R,1.0000X1.0000*%
%ADD41R,1.0000X1.0000*%
%ADD42R,1.0000X2.0000*%
%ADD43R,2.2000X1.3500*%
%ADD44R,2.5000X4.0000*%
%ADD48O,2.1000X1.0500*%
%ADD49O,2.0000X1.0000*%
D10*
X240000Y341000D02*
D03*
X224000D02*
D03*
X225000Y399000D02*
D03*
X241000D02*
D03*
X58000Y149000D02*
D03*
X42000D02*
D03*
X219000Y108000D02*
D03*
X235000D02*
D03*
X267000D02*
D03*
X251000D02*
D03*
X264000Y13000D02*
D03*
X280000D02*
D03*
X280000Y30000D02*
D03*
X264000D02*
D03*
X321000Y17600D02*
D03*
X337000D02*
D03*
X168500Y254500D02*
D03*
X184500D02*
D03*
X56000Y239000D02*
D03*
X40000D02*
D03*
X138500Y277500D02*
D03*
X122500D02*
D03*
X138500Y310500D02*
D03*
X122500D02*
D03*
X81000Y309000D02*
D03*
X97000D02*
D03*
X57000Y420000D02*
D03*
X41000D02*
D03*
D11*
X318500Y352600D02*
D03*
X313500D02*
D03*
X308500D02*
D03*
X303500D02*
D03*
X298500D02*
D03*
X293500D02*
D03*
Y335400D02*
D03*
X298500D02*
D03*
X303500D02*
D03*
X308500D02*
D03*
X313500D02*
D03*
X318500D02*
D03*
D12*
X20500Y169500D02*
D03*
X53500D02*
D03*
X20500Y218500D02*
D03*
X53500D02*
D03*
X20500Y259500D02*
D03*
X53500D02*
D03*
X20500Y308500D02*
D03*
X53500D02*
D03*
X20500Y349500D02*
D03*
X53500D02*
D03*
X20500Y398500D02*
D03*
X53500D02*
D03*
X20500Y79500D02*
D03*
X53500D02*
D03*
X20500Y128500D02*
D03*
X53500D02*
D03*
D13*
X176250Y292250D02*
D03*
D14*
X189000Y312000D02*
D03*
X184000D02*
D03*
X179000D02*
D03*
X174000D02*
D03*
X169000D02*
D03*
X164000D02*
D03*
Y272000D02*
D03*
X169000D02*
D03*
X174000D02*
D03*
X179000D02*
D03*
X184000D02*
D03*
X189000D02*
D03*
D15*
X156500Y304500D02*
D03*
Y299500D02*
D03*
Y294500D02*
D03*
Y289500D02*
D03*
Y284500D02*
D03*
Y279500D02*
D03*
X196500D02*
D03*
Y284500D02*
D03*
Y289500D02*
D03*
Y294500D02*
D03*
Y299500D02*
D03*
Y304500D02*
D03*
D16*
X318000Y384000D02*
D03*
Y400000D02*
D03*
X302000Y384000D02*
D03*
Y400000D02*
D03*
X286000Y384000D02*
D03*
Y400000D02*
D03*
X212000Y283000D02*
D03*
Y267000D02*
D03*
X90000Y461000D02*
D03*
Y445000D02*
D03*
D17*
X202500Y419500D02*
D03*
X197500D02*
D03*
X192500D02*
D03*
X187500D02*
D03*
X182500D02*
D03*
X177500D02*
D03*
X172500D02*
D03*
X167500D02*
D03*
X162500D02*
D03*
X157500D02*
D03*
X152500D02*
D03*
X147500D02*
D03*
Y349500D02*
D03*
X152500D02*
D03*
X157500D02*
D03*
X162500D02*
D03*
X167500D02*
D03*
X172500D02*
D03*
X177500D02*
D03*
X182500D02*
D03*
X187500D02*
D03*
X192500D02*
D03*
X197500D02*
D03*
X202500D02*
D03*
D18*
X140000Y412000D02*
D03*
Y407000D02*
D03*
Y402000D02*
D03*
Y397000D02*
D03*
Y392000D02*
D03*
Y387000D02*
D03*
Y382000D02*
D03*
Y377000D02*
D03*
Y372000D02*
D03*
Y367000D02*
D03*
Y362000D02*
D03*
Y357000D02*
D03*
X210000D02*
D03*
Y362000D02*
D03*
Y367000D02*
D03*
Y372000D02*
D03*
Y377000D02*
D03*
Y382000D02*
D03*
Y387000D02*
D03*
Y392000D02*
D03*
Y397000D02*
D03*
Y402000D02*
D03*
Y407000D02*
D03*
Y412000D02*
D03*
D19*
X175000Y384500D02*
D03*
D20*
X138000Y125000D02*
D03*
X98000D02*
D03*
D21*
X116000Y84500D02*
D03*
Y29500D02*
D03*
D22*
X234000Y85000D02*
D03*
Y20000D02*
D03*
D23*
X116000Y153000D02*
D03*
Y162500D02*
D03*
Y172000D02*
D03*
X89800Y153000D02*
D03*
Y172000D02*
D03*
X238000Y145000D02*
D03*
Y135500D02*
D03*
Y126000D02*
D03*
X264200Y145000D02*
D03*
Y126000D02*
D03*
D24*
X123800Y200000D02*
D03*
X152000D02*
D03*
D25*
X174500Y174000D02*
D03*
X193500D02*
D03*
D26*
X177000Y146000D02*
D03*
Y127000D02*
D03*
D27*
X196500Y128000D02*
D03*
X206000D02*
D03*
X215500D02*
D03*
X196500Y154200D02*
D03*
X215500D02*
D03*
D28*
X124000Y228000D02*
D03*
X151000D02*
D03*
D29*
X282000Y86750D02*
D03*
X277000D02*
D03*
X272000D02*
D03*
X267000D02*
D03*
X262000D02*
D03*
X282000Y57250D02*
D03*
X277000D02*
D03*
X272000D02*
D03*
X267000D02*
D03*
X262000D02*
D03*
D30*
X272000Y72000D02*
D03*
D31*
X332000Y53000D02*
D03*
X325500D02*
D03*
X319000D02*
D03*
X338500D02*
D03*
X332000Y33600D02*
D03*
X325500D02*
D03*
X319000D02*
D03*
X338500D02*
D03*
D32*
X293000Y128000D02*
D03*
Y150000D02*
D03*
D33*
X263000Y160000D02*
D03*
X248000D02*
D03*
X137500Y294500D02*
D03*
X122500D02*
D03*
X243000Y262000D02*
D03*
X258000D02*
D03*
X93000Y350000D02*
D03*
X108000D02*
D03*
D34*
X261000Y235000D02*
D03*
X256000D02*
D03*
X251000D02*
D03*
X246000D02*
D03*
X241000D02*
D03*
X261000Y193000D02*
D03*
X256000D02*
D03*
X251000D02*
D03*
X246000D02*
D03*
X241000D02*
D03*
D35*
X287000Y285000D02*
D03*
Y300000D02*
D03*
X305000Y285000D02*
D03*
Y300000D02*
D03*
X323000Y285000D02*
D03*
Y300000D02*
D03*
X344000Y307000D02*
D03*
Y292000D02*
D03*
X72000Y365000D02*
D03*
Y350000D02*
D03*
X106000Y460000D02*
D03*
Y445000D02*
D03*
X231000Y459000D02*
D03*
Y444000D02*
D03*
X246000Y459000D02*
D03*
Y444000D02*
D03*
D36*
X294450Y202500D02*
D03*
Y207500D02*
D03*
Y212500D02*
D03*
Y237500D02*
D03*
Y232500D02*
D03*
Y227500D02*
D03*
Y217500D02*
D03*
Y222500D02*
D03*
D37*
Y244000D02*
D03*
Y196000D02*
D03*
Y252000D02*
D03*
Y188000D02*
D03*
D38*
X360000Y306000D02*
D03*
Y292000D02*
D03*
D39*
X347500Y331000D02*
D03*
X362000D02*
D03*
X347500Y367000D02*
D03*
X362000D02*
D03*
D40*
X109000Y412000D02*
D03*
X93000D02*
D03*
X109000Y370000D02*
D03*
X93000D02*
D03*
D41*
X71000Y446000D02*
D03*
Y462000D02*
D03*
X29000Y446000D02*
D03*
Y462000D02*
D03*
D42*
X197500Y465000D02*
D03*
X146500D02*
D03*
D43*
X346000Y421800D02*
D03*
Y450000D02*
D03*
D44*
X188000Y83000D02*
D03*
Y30000D02*
D03*
D48*
X300200Y263200D02*
D03*
Y176800D02*
D03*
D49*
X342000Y263200D02*
D03*
Y176800D02*
D03*
M02*
