M48
;Layer_Color=9474304
;FILE_FORMAT=4:4
METRIC,LZ
;TYPE=PLATED
T1F00S00C0.3000
;TYPE=NON_PLATED
T3F00S00C0.6500
%
T01
X00291Y0004
X0032Y00067
X00307Y00094
X00314Y00111
X002785Y000425
X00248Y00055
X00249Y00069
X00235
Y00057
X00222Y00069
X00208Y00101
X00169Y00069
X00159Y00034
X00162Y000225
X001515Y0001575
X0014625Y0002625
X00019Y00059
X0002Y00151
X00077Y00164
Y00173
X0013Y00153
X0017Y00158
X00171Y00192
X00172Y00207
X0017Y00221
X00189Y00189
X00203
X00206Y00175
X00234Y0015375
X00270996Y00176
X0028Y00196
X00279Y00244
X00243Y00251
X00251Y00275
X00223Y00297
X00215Y00305
X002055Y003175
X001905Y003225
X001975Y003345
X00208772Y00337016
X001855Y003375
X0016877Y00335016
X00173Y00327
X00148Y00324
X001305Y0033675
X00128Y00377
X0012775Y00385
X00124Y00405
Y00416
X0013Y0043
X001Y00429
X00086
X000705Y00425
Y00415
Y00405
X00078Y00388
X00094999Y00387999
X0009725Y0038
X0015675Y00367
X00168Y003675
X001605Y003925
Y00405
X001755
Y003925
X00188Y00393
X001905Y00405
X0019Y00432
X00215Y00431
X00221Y00425
X00252Y00411
X00245Y00386
Y00362
X00236Y00355
X00246Y00325
X00272Y00384
X0026Y0046
X00068Y004325
X00058
X00028Y0042
X000155Y00435
Y004475
X0002Y00332
X00019Y00243
X00108Y002775
Y002925
Y0031
X00199Y00258
X0016225Y0012725
X00327Y00127
X00321Y00118
X00308Y00202
X00309Y00238
X00282Y00257
X00287Y00312
X003Y00314
X00321Y00317
X0032375Y0032525
X00348Y00317
X00334Y00301
X00346Y00278
X00361Y00347
X00354Y00382
Y00397
X0034
X00331Y00381
X00333Y00369
X00316
X00301Y00367
X00284Y00364
X00286Y00345
X00281Y00323
X00289Y00458
T03
X003052Y001911
Y002489
M30
