G04 Layer_Color=8388736*
%FSLAX44Y44*%
%MOMM*%
G71*
G01*
G75*
%ADD28R,1.1000X1.7000*%
%ADD62R,1.1500X1.1000*%
G04:AMPARAMS|DCode=63|XSize=1.19mm|YSize=0.42mm|CornerRadius=0.122mm|HoleSize=0mm|Usage=FLASHONLY|Rotation=270.000|XOffset=0mm|YOffset=0mm|HoleType=Round|Shape=RoundedRectangle|*
%AMROUNDEDRECTD63*
21,1,1.1900,0.1760,0,0,270.0*
21,1,0.9460,0.4200,0,0,270.0*
1,1,0.2440,-0.0880,-0.4730*
1,1,0.2440,-0.0880,0.4730*
1,1,0.2440,0.0880,0.4730*
1,1,0.2440,0.0880,-0.4730*
%
%ADD63ROUNDEDRECTD63*%
%ADD64R,2.8700X2.7700*%
%ADD65R,0.4200X0.8700*%
%ADD66R,0.8700X0.4200*%
%ADD67R,1.1000X1.1500*%
G04:AMPARAMS|DCode=68|XSize=0.92mm|YSize=0.42mm|CornerRadius=0.0735mm|HoleSize=0mm|Usage=FLASHONLY|Rotation=90.000|XOffset=0mm|YOffset=0mm|HoleType=Round|Shape=RoundedRectangle|*
%AMROUNDEDRECTD68*
21,1,0.9200,0.2730,0,0,90.0*
21,1,0.7730,0.4200,0,0,90.0*
1,1,0.1470,0.1365,0.3865*
1,1,0.1470,0.1365,-0.3865*
1,1,0.1470,-0.1365,-0.3865*
1,1,0.1470,-0.1365,0.3865*
%
%ADD68ROUNDEDRECTD68*%
G04:AMPARAMS|DCode=69|XSize=0.92mm|YSize=0.42mm|CornerRadius=0.0735mm|HoleSize=0mm|Usage=FLASHONLY|Rotation=180.000|XOffset=0mm|YOffset=0mm|HoleType=Round|Shape=RoundedRectangle|*
%AMROUNDEDRECTD69*
21,1,0.9200,0.2730,0,0,180.0*
21,1,0.7730,0.4200,0,0,180.0*
1,1,0.1470,-0.3865,0.1365*
1,1,0.1470,0.3865,0.1365*
1,1,0.1470,0.3865,-0.1365*
1,1,0.1470,-0.3865,-0.1365*
%
%ADD69ROUNDEDRECTD69*%
%ADD70R,5.2000X5.2000*%
%ADD71R,2.7000X1.9000*%
%ADD72R,2.4000X2.8000*%
%ADD73R,3.4000X1.8000*%
%ADD74R,1.2200X0.7200*%
%ADD75R,1.5500X2.4000*%
%ADD76R,1.1000X1.5000*%
%ADD77R,1.5000X1.1000*%
%ADD78R,0.7200X1.2200*%
%ADD79R,1.3000X1.9000*%
%ADD80R,0.4200X0.8200*%
%ADD81R,2.4700X1.7000*%
%ADD82R,0.5700X0.6100*%
%ADD83R,1.7000X1.2000*%
%ADD84R,1.1000X1.0000*%
%ADD85R,0.3800X1.6800*%
%ADD86R,1.0000X1.1000*%
%ADD87R,1.3100X0.4600*%
%ADD88R,1.3100X0.7600*%
%ADD89R,0.9000X0.9000*%
%ADD90R,1.2500X1.6000*%
%ADD91R,1.2000X1.2000*%
%ADD92R,1.2000X1.2000*%
%ADD93R,1.2000X2.2000*%
%ADD94R,2.4000X1.5500*%
%ADD95R,2.7000X4.2000*%
%ADD96O,2.3000X1.2500*%
%ADD97O,2.2000X1.2000*%
%ADD98C,0.8000*%
D28*
X20500Y169500D02*
D03*
X53500D02*
D03*
X20500Y218500D02*
D03*
X53500D02*
D03*
X20500Y259500D02*
D03*
X53500D02*
D03*
X20500Y308500D02*
D03*
X53500D02*
D03*
X20500Y349500D02*
D03*
X53500D02*
D03*
X20500Y398500D02*
D03*
X53500D02*
D03*
X20500Y79500D02*
D03*
X53500D02*
D03*
X20500Y128500D02*
D03*
X53500D02*
D03*
D62*
X240000Y341000D02*
D03*
X224000D02*
D03*
X225000Y399000D02*
D03*
X241000D02*
D03*
X58000Y149000D02*
D03*
X42000D02*
D03*
X219000Y108000D02*
D03*
X235000D02*
D03*
X267000D02*
D03*
X251000D02*
D03*
X264000Y13000D02*
D03*
X280000D02*
D03*
X280000Y30000D02*
D03*
X264000D02*
D03*
X321000Y17600D02*
D03*
X337000D02*
D03*
X168500Y254500D02*
D03*
X184500D02*
D03*
X56000Y239000D02*
D03*
X40000D02*
D03*
X138500Y277500D02*
D03*
X122500D02*
D03*
X138500Y310500D02*
D03*
X122500D02*
D03*
X81000Y309000D02*
D03*
X97000D02*
D03*
X57000Y420000D02*
D03*
X41000D02*
D03*
D63*
X318500Y352600D02*
D03*
X313500D02*
D03*
X308500D02*
D03*
X303500D02*
D03*
X298500D02*
D03*
X293500D02*
D03*
Y335400D02*
D03*
X298500D02*
D03*
X303500D02*
D03*
X308500D02*
D03*
X313500D02*
D03*
X318500D02*
D03*
D64*
X176250Y292250D02*
D03*
D65*
X189000Y312000D02*
D03*
X184000D02*
D03*
X179000D02*
D03*
X174000D02*
D03*
X169000D02*
D03*
X164000D02*
D03*
Y272000D02*
D03*
X169000D02*
D03*
X174000D02*
D03*
X179000D02*
D03*
X184000D02*
D03*
X189000D02*
D03*
D66*
X156500Y304500D02*
D03*
Y299500D02*
D03*
Y294500D02*
D03*
Y289500D02*
D03*
Y284500D02*
D03*
Y279500D02*
D03*
X196500D02*
D03*
Y284500D02*
D03*
Y289500D02*
D03*
Y294500D02*
D03*
Y299500D02*
D03*
Y304500D02*
D03*
D67*
X318000Y384000D02*
D03*
Y400000D02*
D03*
X302000Y384000D02*
D03*
Y400000D02*
D03*
X286000Y384000D02*
D03*
Y400000D02*
D03*
X212000Y283000D02*
D03*
Y267000D02*
D03*
X90000Y461000D02*
D03*
Y445000D02*
D03*
D68*
X202500Y419500D02*
D03*
X197500D02*
D03*
X192500D02*
D03*
X187500D02*
D03*
X182500D02*
D03*
X177500D02*
D03*
X172500D02*
D03*
X167500D02*
D03*
X162500D02*
D03*
X157500D02*
D03*
X152500D02*
D03*
X147500D02*
D03*
Y349500D02*
D03*
X152500D02*
D03*
X157500D02*
D03*
X162500D02*
D03*
X167500D02*
D03*
X172500D02*
D03*
X177500D02*
D03*
X182500D02*
D03*
X187500D02*
D03*
X192500D02*
D03*
X197500D02*
D03*
X202500D02*
D03*
D69*
X140000Y412000D02*
D03*
Y407000D02*
D03*
Y402000D02*
D03*
Y397000D02*
D03*
Y392000D02*
D03*
Y387000D02*
D03*
Y382000D02*
D03*
Y377000D02*
D03*
Y372000D02*
D03*
Y367000D02*
D03*
Y362000D02*
D03*
Y357000D02*
D03*
X210000D02*
D03*
Y362000D02*
D03*
Y367000D02*
D03*
Y372000D02*
D03*
Y377000D02*
D03*
Y382000D02*
D03*
Y387000D02*
D03*
Y392000D02*
D03*
Y397000D02*
D03*
Y402000D02*
D03*
Y407000D02*
D03*
Y412000D02*
D03*
D70*
X175000Y384500D02*
D03*
D71*
X138000Y125000D02*
D03*
X98000D02*
D03*
D72*
X116000Y84500D02*
D03*
Y29500D02*
D03*
D73*
X234000Y85000D02*
D03*
Y20000D02*
D03*
D74*
X116000Y153000D02*
D03*
Y162500D02*
D03*
Y172000D02*
D03*
X89800Y153000D02*
D03*
Y172000D02*
D03*
X238000Y145000D02*
D03*
Y135500D02*
D03*
Y126000D02*
D03*
X264200Y145000D02*
D03*
Y126000D02*
D03*
D75*
X123800Y200000D02*
D03*
X152000D02*
D03*
D76*
X174500Y174000D02*
D03*
X193500D02*
D03*
D77*
X177000Y146000D02*
D03*
Y127000D02*
D03*
D78*
X196500Y128000D02*
D03*
X206000D02*
D03*
X215500D02*
D03*
X196500Y154200D02*
D03*
X215500D02*
D03*
D79*
X124000Y228000D02*
D03*
X151000D02*
D03*
D80*
X282000Y86750D02*
D03*
X277000D02*
D03*
X272000D02*
D03*
X267000D02*
D03*
X262000D02*
D03*
X282000Y57250D02*
D03*
X277000D02*
D03*
X272000D02*
D03*
X267000D02*
D03*
X262000D02*
D03*
D81*
X272000Y72000D02*
D03*
D82*
X332000Y53000D02*
D03*
X325500D02*
D03*
X319000D02*
D03*
X338500D02*
D03*
X332000Y33600D02*
D03*
X325500D02*
D03*
X319000D02*
D03*
X338500D02*
D03*
D83*
X293000Y128000D02*
D03*
Y150000D02*
D03*
D84*
X263000Y160000D02*
D03*
X248000D02*
D03*
X137500Y294500D02*
D03*
X122500D02*
D03*
X243000Y262000D02*
D03*
X258000D02*
D03*
X93000Y350000D02*
D03*
X108000D02*
D03*
D85*
X261000Y235000D02*
D03*
X256000D02*
D03*
X251000D02*
D03*
X246000D02*
D03*
X241000D02*
D03*
X261000Y193000D02*
D03*
X256000D02*
D03*
X251000D02*
D03*
X246000D02*
D03*
X241000D02*
D03*
D86*
X287000Y285000D02*
D03*
Y300000D02*
D03*
X305000Y285000D02*
D03*
Y300000D02*
D03*
X323000Y285000D02*
D03*
Y300000D02*
D03*
X344000Y307000D02*
D03*
Y292000D02*
D03*
X72000Y365000D02*
D03*
Y350000D02*
D03*
X106000Y460000D02*
D03*
Y445000D02*
D03*
X231000Y459000D02*
D03*
Y444000D02*
D03*
X246000Y459000D02*
D03*
Y444000D02*
D03*
D87*
X294450Y202500D02*
D03*
Y207500D02*
D03*
Y212500D02*
D03*
Y237500D02*
D03*
Y232500D02*
D03*
Y227500D02*
D03*
Y217500D02*
D03*
Y222500D02*
D03*
D88*
Y244000D02*
D03*
Y196000D02*
D03*
Y252000D02*
D03*
Y188000D02*
D03*
D89*
X360000Y306000D02*
D03*
Y292000D02*
D03*
D90*
X347500Y331000D02*
D03*
X362000D02*
D03*
X347500Y367000D02*
D03*
X362000D02*
D03*
D91*
X109000Y412000D02*
D03*
X93000D02*
D03*
X109000Y370000D02*
D03*
X93000D02*
D03*
D92*
X71000Y446000D02*
D03*
Y462000D02*
D03*
X29000Y446000D02*
D03*
Y462000D02*
D03*
D93*
X197500Y465000D02*
D03*
X146500D02*
D03*
D94*
X346000Y421800D02*
D03*
Y450000D02*
D03*
D95*
X188000Y83000D02*
D03*
Y30000D02*
D03*
D96*
X300200Y263200D02*
D03*
Y176800D02*
D03*
D97*
X342000Y263200D02*
D03*
Y176800D02*
D03*
D98*
X190500Y405000D02*
D03*
X175500D02*
D03*
Y392500D02*
D03*
X188000Y393000D02*
D03*
X160500Y405000D02*
D03*
Y392500D02*
D03*
X168000Y367500D02*
D03*
X162250Y127250D02*
D03*
X156750Y367000D02*
D03*
M02*
