G04 Layer_Physical_Order=1*
G04 Layer_Color=255*
%FSLAX44Y44*%
%MOMM*%
G71*
G01*
G75*
%ADD10R,0.9500X0.9000*%
G04:AMPARAMS|DCode=11|XSize=0.99mm|YSize=0.22mm|CornerRadius=0.022mm|HoleSize=0mm|Usage=FLASHONLY|Rotation=270.000|XOffset=0mm|YOffset=0mm|HoleType=Round|Shape=RoundedRectangle|*
%AMROUNDEDRECTD11*
21,1,0.9900,0.1760,0,0,270.0*
21,1,0.9460,0.2200,0,0,270.0*
1,1,0.0440,-0.0880,-0.4730*
1,1,0.0440,-0.0880,0.4730*
1,1,0.0440,0.0880,0.4730*
1,1,0.0440,0.0880,-0.4730*
%
%ADD11ROUNDEDRECTD11*%
%ADD12R,0.9000X1.5000*%
%ADD13R,2.7500X2.6500*%
%ADD14R,0.3000X0.7500*%
%ADD15R,0.7500X0.3000*%
%ADD16R,0.9000X0.9500*%
G04:AMPARAMS|DCode=17|XSize=0.8mm|YSize=0.3mm|CornerRadius=0.0135mm|HoleSize=0mm|Usage=FLASHONLY|Rotation=90.000|XOffset=0mm|YOffset=0mm|HoleType=Round|Shape=RoundedRectangle|*
%AMROUNDEDRECTD17*
21,1,0.8000,0.2730,0,0,90.0*
21,1,0.7730,0.3000,0,0,90.0*
1,1,0.0270,0.1365,0.3865*
1,1,0.0270,0.1365,-0.3865*
1,1,0.0270,-0.1365,-0.3865*
1,1,0.0270,-0.1365,0.3865*
%
%ADD17ROUNDEDRECTD17*%
G04:AMPARAMS|DCode=18|XSize=0.8mm|YSize=0.3mm|CornerRadius=0.0135mm|HoleSize=0mm|Usage=FLASHONLY|Rotation=180.000|XOffset=0mm|YOffset=0mm|HoleType=Round|Shape=RoundedRectangle|*
%AMROUNDEDRECTD18*
21,1,0.8000,0.2730,0,0,180.0*
21,1,0.7730,0.3000,0,0,180.0*
1,1,0.0270,-0.3865,0.1365*
1,1,0.0270,0.3865,0.1365*
1,1,0.0270,0.3865,-0.1365*
1,1,0.0270,-0.3865,-0.1365*
%
%ADD18ROUNDEDRECTD18*%
%ADD19R,5.0000X5.0000*%
%ADD20R,2.5000X1.7000*%
%ADD21R,2.2000X2.6000*%
%ADD22R,3.2000X1.6000*%
%ADD23R,1.1000X0.6000*%
%ADD24R,1.3500X2.2000*%
%ADD25R,0.9000X1.3000*%
%ADD26R,1.3000X0.9000*%
%ADD27R,0.6000X1.1000*%
%ADD28R,1.1000X1.7000*%
%ADD29R,0.3000X0.7000*%
%ADD30R,2.3500X1.5800*%
%ADD31R,0.4500X0.4900*%
%ADD32R,1.5000X1.0000*%
%ADD33R,0.9000X0.8000*%
%ADD34R,0.3000X1.6000*%
%ADD35R,0.8000X0.9000*%
%ADD36R,1.1500X0.3000*%
%ADD37R,1.1500X0.6000*%
%ADD38R,0.7000X0.7000*%
%ADD39R,1.0500X1.4000*%
%ADD40R,1.0000X1.0000*%
%ADD41R,1.0000X1.0000*%
%ADD42R,1.0000X2.0000*%
%ADD43R,2.2000X1.3500*%
%ADD44R,2.5000X4.0000*%
%ADD45C,0.3000*%
%ADD46C,0.2500*%
%ADD47C,0.8000*%
%ADD48O,2.1000X1.0500*%
%ADD49O,2.0000X1.0000*%
%ADD50C,0.6000*%
G36*
X255534Y360564D02*
Y307436D01*
X243863Y295766D01*
X242016Y296531D01*
Y316000D01*
X241558Y318302D01*
X240254Y320254D01*
X230016Y330492D01*
Y335061D01*
X230120Y335130D01*
X230540Y335759D01*
X230687Y336500D01*
Y345500D01*
X230540Y346241D01*
X230120Y346870D01*
X229491Y347290D01*
X228750Y347437D01*
X227467D01*
Y348000D01*
X227203Y349327D01*
X226451Y350451D01*
X220217Y356686D01*
X220982Y358533D01*
X227564D01*
X231020Y355078D01*
X231004Y355000D01*
X231384Y353088D01*
X232467Y351467D01*
X234088Y350384D01*
X236000Y350004D01*
X237912Y350384D01*
X239533Y351467D01*
X240616Y353088D01*
X240996Y355000D01*
X240680Y356588D01*
X241442Y357401D01*
X242301Y357910D01*
X243088Y357384D01*
X245000Y357004D01*
X246912Y357384D01*
X248533Y358467D01*
X249616Y360088D01*
X249996Y362000D01*
X249680Y363589D01*
X250486Y364347D01*
X251329Y364768D01*
X255534Y360564D01*
D02*
G37*
G36*
X117631Y386533D02*
X116549Y385451D01*
X115797Y384327D01*
X115534Y383000D01*
Y362436D01*
X109035Y355937D01*
X103500D01*
X102759Y355790D01*
X102130Y355370D01*
X101710Y354741D01*
X101563Y354000D01*
Y351222D01*
X99563Y350153D01*
X99437Y350237D01*
Y354000D01*
X99290Y354741D01*
X98870Y355370D01*
X98241Y355790D01*
X97500Y355937D01*
X95467D01*
Y363063D01*
X98000D01*
X98741Y363210D01*
X99370Y363630D01*
X99790Y364259D01*
X99937Y365000D01*
Y375000D01*
X99790Y375741D01*
X99370Y376370D01*
X98741Y376790D01*
X98000Y376937D01*
X91467D01*
Y382061D01*
X92112Y382587D01*
X93467Y383308D01*
X94999Y383003D01*
X96911Y383383D01*
X98532Y384467D01*
X98576Y384533D01*
X100999D01*
X102326Y384796D01*
X103450Y385548D01*
X106436Y388533D01*
X116803D01*
X117631Y386533D01*
D02*
G37*
G36*
X216102Y195000D02*
X217000Y194102D01*
X217000Y172000D01*
X206000Y161000D01*
X206000Y148000D01*
X193000D01*
X184000Y157000D01*
X184000Y195000D01*
X216102Y195000D01*
D02*
G37*
G36*
X75000Y405000D02*
X45000Y375000D01*
Y341000D01*
X49000Y337000D01*
X64000Y337000D01*
X97000Y337000D01*
Y315437D01*
X92250D01*
X91509Y315290D01*
X90880Y314870D01*
X90460Y314241D01*
X90313Y313500D01*
Y304500D01*
X90460Y303759D01*
X90880Y303130D01*
X91509Y302710D01*
X92250Y302563D01*
X97000D01*
X97000Y240000D01*
X135000Y240000D01*
Y191000D01*
X154000Y172000D01*
Y110000D01*
X122000D01*
Y138000D01*
X133336Y149336D01*
X133533Y149467D01*
X133664Y149664D01*
X134999Y150999D01*
X134999Y158000D01*
X110898Y158000D01*
X110000Y158898D01*
Y166000D01*
X128000D01*
X128000Y179000D01*
X122000Y185000D01*
X80000Y185000D01*
X71000Y176000D01*
Y121000D01*
X49000D01*
Y140000D01*
X53000Y144000D01*
Y154000D01*
X62000D01*
X64000Y156000D01*
X64000Y196000D01*
X48000Y212000D01*
X48000Y247000D01*
X62000D01*
X64000Y249000D01*
Y293000D01*
X48000D01*
X37000Y304000D01*
Y399000D01*
X51000Y413000D01*
Y438000D01*
X75000D01*
Y405000D01*
D02*
G37*
G36*
X252000Y430000D02*
X230000Y408000D01*
Y385467D01*
X217000D01*
Y425000D01*
X211000Y425000D01*
X203000Y433000D01*
X203000Y447500D01*
X216000Y447500D01*
Y449000D01*
X252000Y449000D01*
Y430000D01*
D02*
G37*
G36*
X370000Y0D02*
X0D01*
X-0Y481000D01*
X128000Y481000D01*
X130000Y479000D01*
X130000Y448481D01*
X128000Y447653D01*
X113201Y462451D01*
X112077Y463203D01*
X111937Y463230D01*
Y464500D01*
X111790Y465241D01*
X111370Y465870D01*
X110741Y466290D01*
X110000Y466437D01*
X102000D01*
X101259Y466290D01*
X100630Y465870D01*
X100210Y465241D01*
X100063Y464500D01*
Y463467D01*
X96437D01*
Y465750D01*
X96290Y466491D01*
X95870Y467120D01*
X95241Y467540D01*
X94500Y467687D01*
X85500D01*
X84759Y467540D01*
X84130Y467120D01*
X83710Y466491D01*
X83563Y465750D01*
Y463467D01*
X77937D01*
Y467000D01*
X77790Y467741D01*
X77370Y468370D01*
X76741Y468790D01*
X76000Y468937D01*
X66000D01*
X65259Y468790D01*
X64630Y468370D01*
X64210Y467741D01*
X64063Y467000D01*
Y465467D01*
X35937D01*
Y467000D01*
X35790Y467741D01*
X35370Y468370D01*
X34741Y468790D01*
X34000Y468937D01*
X24000D01*
X23259Y468790D01*
X22630Y468370D01*
X22210Y467741D01*
X22063Y467000D01*
Y457000D01*
X22210Y456259D01*
X22630Y455630D01*
X23259Y455210D01*
X24000Y455063D01*
X34000D01*
X34741Y455210D01*
X35370Y455630D01*
X35790Y456259D01*
X35937Y457000D01*
Y458533D01*
X64063D01*
Y457000D01*
X64210Y456259D01*
X64630Y455630D01*
X65259Y455210D01*
X66000Y455063D01*
X76000D01*
X76741Y455210D01*
X77370Y455630D01*
X77790Y456259D01*
X77844Y456533D01*
X83563D01*
Y456250D01*
X83710Y455509D01*
X84130Y454880D01*
X84759Y454460D01*
X85500Y454313D01*
X94500D01*
X95241Y454460D01*
X95870Y454880D01*
X96290Y455509D01*
X96437Y456250D01*
Y456533D01*
X100063D01*
Y455500D01*
X100210Y454759D01*
X100630Y454130D01*
X101259Y453710D01*
X102000Y453563D01*
X110000D01*
X110741Y453710D01*
X111370Y454130D01*
X111686Y454161D01*
X129009Y436838D01*
X128884Y435614D01*
X128476Y434693D01*
X128088Y434616D01*
X126467Y433533D01*
X126423Y433467D01*
X119436D01*
X111937Y440965D01*
Y449500D01*
X111790Y450241D01*
X111370Y450870D01*
X110741Y451290D01*
X110000Y451437D01*
X102000D01*
X101259Y451290D01*
X100630Y450870D01*
X100210Y450241D01*
X100063Y449500D01*
Y440500D01*
X100210Y439759D01*
X100630Y439130D01*
X101259Y438710D01*
X102000Y438563D01*
X104535D01*
X115549Y427549D01*
X116673Y426797D01*
X118000Y426533D01*
X126423D01*
X126467Y426467D01*
X126533Y426423D01*
Y422423D01*
X124534Y420890D01*
X124000Y420996D01*
X122088Y420616D01*
X120467Y419533D01*
X119384Y417912D01*
X119004Y416000D01*
X119384Y414088D01*
X120467Y412467D01*
X121776Y411593D01*
X121949Y410500D01*
X121776Y409407D01*
X120467Y408533D01*
X119384Y406912D01*
X119004Y405000D01*
X119384Y403088D01*
X120467Y401467D01*
X122088Y400384D01*
X124000Y400004D01*
X124078Y400019D01*
X126783Y397314D01*
X126018Y395467D01*
X105000D01*
X103673Y395203D01*
X102549Y394451D01*
X100311Y392214D01*
X98532Y391532D01*
X96911Y392615D01*
X96199Y392757D01*
X94696Y394095D01*
X94467Y394928D01*
Y405063D01*
X98000D01*
X98741Y405210D01*
X99370Y405630D01*
X99790Y406259D01*
X99937Y407000D01*
Y417000D01*
X99790Y417741D01*
X99370Y418370D01*
X98741Y418790D01*
X98000Y418937D01*
X88000D01*
X87259Y418790D01*
X86630Y418370D01*
X86210Y417741D01*
X86063Y417000D01*
Y407000D01*
X86210Y406259D01*
X86630Y405630D01*
X87259Y405210D01*
X87534Y405156D01*
Y395736D01*
X85549Y393751D01*
X84797Y392627D01*
X84534Y391300D01*
Y391078D01*
X82680Y390014D01*
X82534Y390035D01*
X81533Y391533D01*
X79912Y392616D01*
X78000Y392996D01*
X76088Y392616D01*
X74467Y391533D01*
X73384Y389912D01*
X73229Y389132D01*
X69549Y385451D01*
X68797Y384327D01*
X68534Y383000D01*
Y371437D01*
X68000D01*
X67259Y371290D01*
X66630Y370870D01*
X66210Y370241D01*
X66063Y369500D01*
Y360500D01*
X66210Y359759D01*
X66630Y359130D01*
X67259Y358710D01*
X68000Y358563D01*
X76000D01*
X76741Y358710D01*
X77370Y359130D01*
X77790Y359759D01*
X77937Y360500D01*
Y369500D01*
X77790Y370241D01*
X77370Y370870D01*
X76741Y371290D01*
X76000Y371437D01*
X75467D01*
Y381564D01*
X77088Y383185D01*
X78000Y383004D01*
X79912Y383384D01*
X81533Y384467D01*
X82534Y385965D01*
X82680Y385987D01*
X84534Y384921D01*
Y373000D01*
X84797Y371673D01*
X85549Y370549D01*
X86063Y370035D01*
Y365000D01*
X86210Y364259D01*
X86630Y363630D01*
X87259Y363210D01*
X88000Y363063D01*
X88533D01*
Y355937D01*
X88500D01*
X87759Y355790D01*
X87130Y355370D01*
X86710Y354741D01*
X86563Y354000D01*
Y346000D01*
X86710Y345259D01*
X87130Y344630D01*
X87759Y344210D01*
X88500Y344063D01*
X94035D01*
X97231Y340867D01*
X97210Y340697D01*
X96332Y338937D01*
X64000Y338937D01*
X60436Y338937D01*
X59923Y339752D01*
X59575Y340937D01*
X59790Y341259D01*
X59937Y342000D01*
Y346033D01*
X66063D01*
Y345500D01*
X66210Y344759D01*
X66630Y344130D01*
X67259Y343710D01*
X68000Y343563D01*
X76000D01*
X76741Y343710D01*
X77370Y344130D01*
X77790Y344759D01*
X77937Y345500D01*
Y354500D01*
X77790Y355241D01*
X77370Y355870D01*
X76741Y356290D01*
X76000Y356437D01*
X68000D01*
X67259Y356290D01*
X66630Y355870D01*
X66210Y355241D01*
X66063Y354500D01*
Y352967D01*
X59937D01*
Y357000D01*
X59790Y357741D01*
X59370Y358370D01*
X58741Y358790D01*
X58000Y358937D01*
X49000D01*
X48937Y358925D01*
X47270Y359929D01*
X46937Y360312D01*
Y374198D01*
X76370Y403630D01*
X76790Y404259D01*
X76937Y405000D01*
X76937Y405000D01*
Y438000D01*
X76790Y438741D01*
X76370Y439370D01*
X75741Y439790D01*
X75000Y439937D01*
X51000D01*
X50259Y439790D01*
X49630Y439370D01*
X49210Y438741D01*
X49063Y438000D01*
Y413802D01*
X35630Y400370D01*
X35210Y399741D01*
X35063Y399000D01*
X35063Y399000D01*
Y377597D01*
X34587Y377258D01*
X33063Y376840D01*
X23967Y385936D01*
Y389063D01*
X25000D01*
X25741Y389210D01*
X26370Y389630D01*
X26790Y390259D01*
X26937Y391000D01*
Y406000D01*
X26790Y406741D01*
X26370Y407370D01*
X25741Y407790D01*
X25000Y407937D01*
X16000D01*
X15259Y407790D01*
X14630Y407370D01*
X14210Y406741D01*
X14063Y406000D01*
Y391000D01*
X14210Y390259D01*
X14630Y389630D01*
X15259Y389210D01*
X16000Y389063D01*
X17033D01*
Y384500D01*
X17297Y383173D01*
X18049Y382049D01*
X27534Y372564D01*
Y318954D01*
X25935Y317915D01*
X25533Y317831D01*
X25000Y317937D01*
X16000D01*
X15259Y317790D01*
X14630Y317370D01*
X14210Y316741D01*
X14063Y316000D01*
Y301000D01*
X14210Y300259D01*
X14630Y299630D01*
X15259Y299210D01*
X16000Y299063D01*
X17033D01*
Y280500D01*
X17297Y279173D01*
X18049Y278049D01*
X27534Y268564D01*
Y228954D01*
X25935Y227915D01*
X25533Y227831D01*
X25000Y227937D01*
X16000D01*
X15259Y227790D01*
X14630Y227370D01*
X14210Y226741D01*
X14063Y226000D01*
Y211000D01*
X14210Y210259D01*
X14630Y209630D01*
X15259Y209210D01*
X16000Y209063D01*
X25000D01*
X25029Y209069D01*
X27534Y206564D01*
Y138954D01*
X25935Y137915D01*
X25533Y137831D01*
X25000Y137937D01*
X16000D01*
X15259Y137790D01*
X14630Y137370D01*
X14210Y136741D01*
X14063Y136000D01*
Y121000D01*
X14210Y120259D01*
X14630Y119630D01*
X15259Y119210D01*
X16000Y119063D01*
X25000D01*
X25533Y119169D01*
X25935Y119084D01*
X27534Y118046D01*
Y102000D01*
X27797Y100673D01*
X28549Y99549D01*
X47063Y81035D01*
Y72000D01*
X47210Y71259D01*
X47630Y70630D01*
X48259Y70210D01*
X49000Y70063D01*
X58000D01*
X58741Y70210D01*
X59370Y70630D01*
X59790Y71259D01*
X59937Y72000D01*
Y87000D01*
X59790Y87741D01*
X59370Y88370D01*
X58741Y88790D01*
X58000Y88937D01*
X49000D01*
X48971Y88931D01*
X34467Y103436D01*
Y180802D01*
X36467Y181631D01*
X47063Y171035D01*
Y162000D01*
X47210Y161259D01*
X47630Y160630D01*
X48259Y160210D01*
X49000Y160063D01*
X58000D01*
X58741Y160210D01*
X59370Y160630D01*
X59790Y161259D01*
X59937Y162000D01*
Y177000D01*
X59790Y177741D01*
X59370Y178370D01*
X58741Y178790D01*
X58000Y178937D01*
X49000D01*
X48971Y178931D01*
X40467Y187436D01*
Y220000D01*
X40203Y221327D01*
X39451Y222451D01*
X34467Y227436D01*
Y270000D01*
X34267Y271002D01*
X35083Y271765D01*
X35917Y272181D01*
X47063Y261035D01*
Y252000D01*
X47210Y251259D01*
X47470Y250871D01*
X47353Y249718D01*
X47022Y248631D01*
X46630Y248370D01*
X46210Y247741D01*
X46063Y247000D01*
X46063Y212000D01*
X46063Y212000D01*
X46210Y211259D01*
X46630Y210630D01*
X62063Y195198D01*
X62063Y156802D01*
X61198Y155937D01*
X53000D01*
X52259Y155790D01*
X51630Y155370D01*
X51210Y154741D01*
X51063Y154000D01*
Y144802D01*
X47630Y141370D01*
X47210Y140741D01*
X47063Y140000D01*
X47063Y140000D01*
Y121000D01*
X47210Y120259D01*
X47630Y119630D01*
X48259Y119210D01*
X49000Y119063D01*
X71000D01*
X71741Y119210D01*
X72370Y119630D01*
X72790Y120259D01*
X72937Y121000D01*
Y175198D01*
X80803Y183063D01*
X121197Y183063D01*
X126063Y178197D01*
X126063Y169787D01*
X125437Y169427D01*
X123437Y170584D01*
Y175000D01*
X123290Y175741D01*
X122870Y176370D01*
X122241Y176790D01*
X121500Y176937D01*
X110500D01*
X109759Y176790D01*
X109130Y176370D01*
X108710Y175741D01*
X108563Y175000D01*
Y169000D01*
X108710Y168259D01*
X109096Y167681D01*
X108630Y167370D01*
X108210Y166741D01*
X108063Y166000D01*
Y158898D01*
X108063Y158898D01*
X108210Y158157D01*
X108630Y157528D01*
X108993Y157165D01*
X108710Y156741D01*
X108563Y156000D01*
Y150000D01*
X108710Y149259D01*
X109130Y148630D01*
X109759Y148210D01*
X110500Y148063D01*
X121500D01*
X122241Y148210D01*
X122870Y148630D01*
X123290Y149259D01*
X123344Y149533D01*
X126423D01*
X126467Y149467D01*
X127326Y148894D01*
X127815Y146555D01*
X120630Y139370D01*
X120630Y139370D01*
X120210Y138741D01*
X120063Y138000D01*
X120063Y138000D01*
Y110000D01*
X120210Y109259D01*
X120630Y108630D01*
X121259Y108210D01*
X122000Y108063D01*
X154000D01*
X154741Y108210D01*
X155370Y108630D01*
X155790Y109259D01*
X155937Y110000D01*
Y172000D01*
X155937Y172000D01*
X155790Y172741D01*
X155370Y173370D01*
X155370Y173370D01*
X136937Y191802D01*
Y240000D01*
X136790Y240741D01*
X136370Y241370D01*
X135741Y241790D01*
X135000Y241937D01*
X98937Y241937D01*
X98937Y302563D01*
X98790Y303304D01*
X98370Y303933D01*
X97741Y304352D01*
X97000Y304500D01*
X92441D01*
X92282Y304532D01*
X92250Y304691D01*
Y313309D01*
X92282Y313468D01*
X92441Y313500D01*
X97000D01*
X97741Y313647D01*
X98370Y314067D01*
X98790Y314696D01*
X98937Y315437D01*
Y336332D01*
X99833Y337009D01*
X100393Y337242D01*
X100886Y337324D01*
X101673Y336797D01*
X103000Y336533D01*
X116000D01*
X117327Y336797D01*
X118451Y337549D01*
X122451Y341549D01*
X123203Y342673D01*
X123467Y344000D01*
Y348709D01*
X123533Y348754D01*
X125534Y347685D01*
Y345000D01*
X125797Y343673D01*
X126549Y342549D01*
X126837Y342261D01*
X126967Y340283D01*
X125884Y338662D01*
X125504Y336750D01*
X125884Y334838D01*
X126967Y333217D01*
X128588Y332134D01*
X130500Y331754D01*
X132412Y332134D01*
X134033Y333217D01*
X135116Y334838D01*
X135496Y336750D01*
X135116Y338662D01*
X134895Y338992D01*
X134951Y339049D01*
X135703Y340173D01*
X135967Y341500D01*
X135703Y342827D01*
X134951Y343951D01*
X132467Y346436D01*
Y352564D01*
X133436Y353533D01*
X140000D01*
X140134Y353560D01*
X142137D01*
X143883Y353383D01*
X144060Y351637D01*
Y345635D01*
X144218Y344841D01*
X144668Y344168D01*
X145341Y343718D01*
X146135Y343560D01*
X148865D01*
X149659Y343718D01*
X150000Y343946D01*
X150341Y343718D01*
X151135Y343560D01*
X153865D01*
X154659Y343718D01*
X155000Y343946D01*
X155341Y343718D01*
X156135Y343560D01*
X158865D01*
X159033Y343422D01*
Y338500D01*
X159297Y337173D01*
X160049Y336049D01*
X163532Y332565D01*
X164657Y331814D01*
X165072Y331731D01*
X165237Y331484D01*
X166858Y330401D01*
X166960Y330380D01*
X168384Y328912D01*
X168004Y327000D01*
X168384Y325088D01*
X169467Y323467D01*
X171088Y322384D01*
X173000Y322004D01*
X174912Y322384D01*
X176533Y323467D01*
X177616Y325088D01*
X177996Y327000D01*
X177980Y327078D01*
X178101Y327199D01*
X178853Y328323D01*
X179117Y329650D01*
Y339600D01*
X178853Y340927D01*
X179422Y343119D01*
X180341Y343718D01*
X181135Y343560D01*
X183865D01*
X184659Y343718D01*
X185000Y343946D01*
X185341Y343718D01*
X186135Y343560D01*
X188865D01*
X189659Y343718D01*
X190000Y343946D01*
X190341Y343718D01*
X191135Y343560D01*
X193865D01*
X194033Y343422D01*
Y338077D01*
X193967Y338033D01*
X192884Y336412D01*
X192504Y334500D01*
X192884Y332588D01*
X193967Y330967D01*
X195588Y329884D01*
X197500Y329504D01*
X199412Y329884D01*
X201033Y330967D01*
X202116Y332588D01*
X202444Y334239D01*
X203514Y334610D01*
X204421Y334707D01*
X205239Y333484D01*
X206860Y332401D01*
X208772Y332020D01*
X210683Y332401D01*
X212304Y333484D01*
X213387Y335104D01*
X213768Y337016D01*
X213387Y338928D01*
X212304Y340549D01*
X210683Y341632D01*
X208920Y341983D01*
X205967Y344936D01*
Y349500D01*
X205940Y349634D01*
Y351637D01*
X206117Y353383D01*
X207863Y353560D01*
X209866D01*
X210000Y353533D01*
X213564D01*
X217955Y349142D01*
X218013Y348950D01*
X217880Y346870D01*
X217460Y346241D01*
X217313Y345500D01*
Y336500D01*
X217460Y335759D01*
X217880Y335130D01*
X217985Y335061D01*
Y328000D01*
X218442Y325698D01*
X219746Y323746D01*
X229984Y313508D01*
Y297729D01*
X229900Y297679D01*
X227664Y298670D01*
X227616Y298912D01*
X226533Y300533D01*
X224912Y301616D01*
X223000Y301996D01*
X221088Y301616D01*
X220996Y301554D01*
X219554Y302996D01*
X219616Y303088D01*
X219996Y305000D01*
X219616Y306912D01*
X218533Y308533D01*
X216912Y309616D01*
X215000Y309996D01*
X213088Y309616D01*
X211467Y308533D01*
X211089Y307966D01*
X196500D01*
X196352Y307937D01*
X192750D01*
X192009Y307790D01*
X191380Y307370D01*
X190960Y306741D01*
X190813Y306000D01*
Y303000D01*
X190960Y302259D01*
X191133Y302000D01*
X190960Y301741D01*
X190813Y301000D01*
Y298000D01*
X190960Y297259D01*
X191133Y297000D01*
X190960Y296741D01*
X190813Y296000D01*
Y293000D01*
X190960Y292259D01*
X191133Y292000D01*
X190960Y291741D01*
X190813Y291000D01*
Y288000D01*
X190960Y287259D01*
X191133Y287000D01*
X190960Y286741D01*
X190813Y286000D01*
Y283000D01*
X190960Y282259D01*
X191133Y282000D01*
X190960Y281741D01*
X190813Y281000D01*
Y278000D01*
X190960Y277259D01*
X191380Y276630D01*
X192009Y276210D01*
X192750Y276063D01*
X200250D01*
X200991Y276210D01*
X201620Y276630D01*
X202040Y277259D01*
X202187Y278000D01*
Y281000D01*
X202215Y281033D01*
X205563D01*
Y278250D01*
X205710Y277509D01*
X206130Y276880D01*
X206759Y276460D01*
X207500Y276313D01*
X216500D01*
X217241Y276460D01*
X217870Y276880D01*
X217985Y277052D01*
X219984Y276557D01*
Y231000D01*
Y197492D01*
X218167Y195674D01*
X217472Y196370D01*
X216843Y196790D01*
X216102Y196937D01*
X216102Y196937D01*
X212016D01*
Y211000D01*
X211558Y213302D01*
X210254Y215254D01*
X175187Y250320D01*
Y259000D01*
X175040Y259741D01*
X174620Y260370D01*
X173991Y260790D01*
X173250Y260937D01*
X171629D01*
X170951Y261951D01*
X168590Y264313D01*
X169418Y266313D01*
X170500D01*
X171241Y266460D01*
X171500Y266633D01*
X171759Y266460D01*
X172500Y266313D01*
X175500D01*
X176241Y266460D01*
X176500Y266633D01*
X176759Y266460D01*
X177500Y266313D01*
X180500D01*
X181241Y266460D01*
X181500Y266633D01*
X181759Y266460D01*
X182500Y266313D01*
X185500D01*
X186241Y266460D01*
X186870Y266880D01*
X187290Y267509D01*
X187437Y268250D01*
Y275750D01*
X187290Y276491D01*
X186870Y277120D01*
X186241Y277540D01*
X185500Y277687D01*
X182500D01*
X181759Y277540D01*
X181500Y277367D01*
X181241Y277540D01*
X180500Y277687D01*
X177500D01*
X176759Y277540D01*
X176500Y277367D01*
X176241Y277540D01*
X175500Y277687D01*
X172500D01*
X171759Y277540D01*
X171500Y277367D01*
X171241Y277540D01*
X170500Y277687D01*
X167500D01*
X166759Y277540D01*
X166500Y277367D01*
X166241Y277540D01*
X165500Y277687D01*
X164133D01*
X162457Y277957D01*
X162187Y279633D01*
Y281000D01*
X162040Y281741D01*
X161620Y282370D01*
X160991Y282790D01*
X160250Y282937D01*
X152750D01*
X152009Y282790D01*
X151380Y282370D01*
X150960Y281741D01*
X150813Y281000D01*
Y278000D01*
X150960Y277259D01*
X151380Y276630D01*
X152009Y276210D01*
X152750Y276063D01*
X158617D01*
X160293Y275793D01*
X160563Y274117D01*
Y272148D01*
X160534Y272000D01*
Y264000D01*
X160797Y262673D01*
X161549Y261549D01*
X161588Y261509D01*
X162380Y260370D01*
X161960Y259741D01*
X161813Y259000D01*
Y250000D01*
X161960Y249259D01*
X162380Y248630D01*
X162484Y248561D01*
Y248500D01*
X162942Y246198D01*
X164246Y244246D01*
X199984Y208508D01*
Y196937D01*
X184000Y196937D01*
X183259Y196790D01*
X182630Y196370D01*
X182210Y195741D01*
X182063Y195000D01*
X182063Y157000D01*
X182063Y157000D01*
X182210Y156258D01*
X182630Y155630D01*
X182630Y155630D01*
X191630Y146630D01*
X191630Y146630D01*
X192259Y146210D01*
X193000Y146063D01*
X193000Y146063D01*
X206000D01*
X206741Y146210D01*
X207370Y146630D01*
X207790Y147259D01*
X207937Y148000D01*
X207937Y159656D01*
X208626Y160214D01*
X209444Y159997D01*
X210441Y159324D01*
X210563Y159177D01*
Y148700D01*
X210710Y147959D01*
X211130Y147330D01*
X211759Y146910D01*
X212500Y146763D01*
X218500D01*
X219241Y146910D01*
X219870Y147330D01*
X220290Y147959D01*
X220437Y148700D01*
Y159700D01*
X220290Y160441D01*
X219870Y161070D01*
X219241Y161490D01*
X218500Y161637D01*
X212500D01*
X212132Y161564D01*
X211224Y162633D01*
X210953Y163213D01*
X218370Y170630D01*
X218370Y170630D01*
X218790Y171259D01*
X218937Y172000D01*
X218937Y172000D01*
X218937Y179430D01*
X230254Y190746D01*
X231558Y192698D01*
X232016Y195000D01*
Y217517D01*
X234016Y218237D01*
X234673Y217797D01*
X236000Y217533D01*
X240802D01*
X241631Y215533D01*
X238549Y212451D01*
X237797Y211327D01*
X237533Y210000D01*
Y193000D01*
X237563Y192852D01*
Y185000D01*
X237710Y184259D01*
X238130Y183630D01*
X238759Y183210D01*
X239500Y183063D01*
X242500D01*
X243241Y183210D01*
X243500Y183383D01*
X243759Y183210D01*
X244500Y183063D01*
X247500D01*
X248241Y183210D01*
X248870Y183630D01*
X249290Y184259D01*
X249437Y185000D01*
Y192852D01*
X249467Y193000D01*
Y204564D01*
X251436Y206533D01*
X264000D01*
X265327Y206797D01*
X266451Y207549D01*
X276534Y217631D01*
X278533Y216802D01*
Y215000D01*
X278797Y213673D01*
X279549Y212549D01*
X282049Y210049D01*
X283174Y209297D01*
X284500Y209033D01*
X286735D01*
X286763Y209000D01*
Y206000D01*
X286910Y205259D01*
X287083Y205000D01*
X286910Y204741D01*
X286763Y204000D01*
Y201000D01*
X285421Y199668D01*
X283533Y199533D01*
X281912Y200616D01*
X280000Y200996D01*
X278088Y200616D01*
X276467Y199533D01*
X275384Y197912D01*
X275004Y196000D01*
X275384Y194088D01*
X276467Y192467D01*
X276534Y192423D01*
Y180132D01*
X274534Y179526D01*
X274529Y179533D01*
X272908Y180616D01*
X270996Y180996D01*
X269084Y180616D01*
X267463Y179533D01*
X267249Y179212D01*
X239444D01*
X238215Y178967D01*
X237173Y178271D01*
X224679Y165777D01*
X223983Y164735D01*
X223738Y163506D01*
Y146506D01*
X213229Y135997D01*
X212855Y135437D01*
X212500D01*
X211759Y135290D01*
X211130Y134870D01*
X210710Y134241D01*
X210563Y133500D01*
Y122500D01*
X210710Y121759D01*
X211130Y121130D01*
X211759Y120710D01*
X212500Y120563D01*
X217995D01*
X218731Y119329D01*
X218866Y118606D01*
X216198Y115937D01*
X204802D01*
X201937Y118802D01*
Y136000D01*
X201790Y136741D01*
X201370Y137370D01*
X200741Y137790D01*
X200000Y137937D01*
X194000D01*
X193259Y137790D01*
X192630Y137370D01*
X192630Y137370D01*
X188198Y132937D01*
X184769D01*
X184241Y133290D01*
X183500Y133437D01*
X170500D01*
X169759Y133290D01*
X169231Y132937D01*
X169000D01*
X168259Y132790D01*
X167630Y132370D01*
X167210Y131741D01*
X167063Y131000D01*
Y109802D01*
X151630Y94370D01*
X151210Y93741D01*
X151063Y93000D01*
X151063Y93000D01*
X151063Y71802D01*
X125198Y45937D01*
X104750Y45937D01*
X104009Y45790D01*
X103380Y45370D01*
X102960Y44741D01*
X102813Y44000D01*
X102813Y17000D01*
X102960Y16259D01*
X103175Y15938D01*
X103210Y15759D01*
X103630Y15130D01*
X104259Y14710D01*
X105000Y14563D01*
X127000D01*
X127741Y14710D01*
X128269Y15063D01*
X130000D01*
X130741Y15210D01*
X131370Y15630D01*
X131790Y16259D01*
X131937Y17000D01*
X131937Y24198D01*
X167802Y60063D01*
X209000Y60063D01*
X209741Y60210D01*
X210370Y60630D01*
X210790Y61259D01*
X210937Y62000D01*
X210937Y96198D01*
X215802Y101063D01*
X225000D01*
X225741Y101210D01*
X226370Y101630D01*
X226790Y102259D01*
X226937Y103000D01*
Y111000D01*
X226937Y111000D01*
X226790Y111741D01*
X226666Y111926D01*
X235802Y121063D01*
X244000D01*
X244741Y121210D01*
X245370Y121630D01*
X245790Y122259D01*
X245937Y123000D01*
Y128000D01*
X245937Y128000D01*
X245790Y128741D01*
X245370Y129370D01*
X245370Y129370D01*
X245362Y129377D01*
X245290Y129741D01*
X244870Y130370D01*
X244241Y130790D01*
X243500Y130937D01*
X243000D01*
X243000Y130937D01*
X243000Y130937D01*
X226000D01*
X225259Y130790D01*
X224630Y130370D01*
X224210Y129741D01*
X224063Y129000D01*
Y123802D01*
X222394Y122134D01*
X221671Y122269D01*
X220437Y123005D01*
Y133500D01*
X220334Y134018D01*
X228563Y142246D01*
X229408Y142142D01*
X230655Y141538D01*
X230710Y141259D01*
X231130Y140630D01*
X231759Y140210D01*
X232500Y140063D01*
X243500D01*
X244241Y140210D01*
X244870Y140630D01*
X245290Y141259D01*
X245437Y142000D01*
Y148000D01*
X245290Y148741D01*
X244870Y149370D01*
X244241Y149790D01*
X243500Y149937D01*
X239751D01*
X238629Y151816D01*
X238636Y151937D01*
X238996Y153750D01*
X238616Y155662D01*
X237533Y157283D01*
X235912Y158366D01*
X234000Y158746D01*
X232162Y158380D01*
X232079Y158371D01*
X230162Y159484D01*
Y162176D01*
X240774Y172788D01*
X267249D01*
X267463Y172467D01*
X269084Y171384D01*
X270996Y171004D01*
X272908Y171384D01*
X274529Y172467D01*
X274534Y172474D01*
X276534Y171868D01*
Y166000D01*
X276797Y164673D01*
X277549Y163549D01*
X284184Y156914D01*
X284130Y156370D01*
X283710Y155741D01*
X283563Y155000D01*
Y145000D01*
X283710Y144259D01*
X284130Y143630D01*
X284759Y143210D01*
X285500Y143063D01*
X300500D01*
X301241Y143210D01*
X301870Y143630D01*
X302290Y144259D01*
X302437Y145000D01*
Y155000D01*
X302290Y155741D01*
X301870Y156370D01*
X301241Y156790D01*
X300500Y156937D01*
X293965D01*
X283467Y167436D01*
Y192423D01*
X283533Y192467D01*
X283577Y192533D01*
X286856D01*
X286910Y192259D01*
X287330Y191630D01*
X287959Y191210D01*
X288700Y191063D01*
X299957D01*
X299986Y190913D01*
Y190722D01*
X300239Y189454D01*
X300528Y188756D01*
X301246Y187681D01*
X301781Y187146D01*
X302856Y186428D01*
X303554Y186139D01*
X303587Y186012D01*
X302044Y184012D01*
X294950D01*
X293083Y183766D01*
X291344Y183046D01*
X289851Y181899D01*
X288705Y180406D01*
X287984Y178666D01*
X287738Y176800D01*
X287984Y174933D01*
X288705Y173194D01*
X289851Y171701D01*
X291344Y170555D01*
X293083Y169834D01*
X294950Y169588D01*
X305450D01*
X307317Y169834D01*
X309056Y170555D01*
X310550Y171701D01*
X311696Y173194D01*
X312416Y174933D01*
X312662Y176800D01*
X312416Y178666D01*
X311696Y180406D01*
X310550Y181899D01*
X309056Y183046D01*
X307781Y183574D01*
X307317Y183766D01*
X306018Y184146D01*
X305958Y185962D01*
X306128Y185996D01*
X306846Y186139D01*
X307544Y186428D01*
X308619Y187146D01*
X309154Y187681D01*
X309872Y188756D01*
X310161Y189454D01*
Y189454D01*
X310414Y190722D01*
Y190913D01*
X310451Y191100D01*
X310414Y191287D01*
Y191478D01*
X310161Y192746D01*
X309872Y193444D01*
X309154Y194519D01*
X308619Y195054D01*
X307544Y195772D01*
X306846Y196061D01*
X306846D01*
X305578Y196314D01*
X304822D01*
X304137Y196177D01*
X302464Y197148D01*
X302137Y197639D01*
Y199000D01*
X301990Y199741D01*
X301817Y200000D01*
X301990Y200259D01*
X302137Y201000D01*
Y204000D01*
X301990Y204741D01*
X301817Y205000D01*
X301990Y205259D01*
X302137Y206000D01*
Y209000D01*
X301990Y209741D01*
X301817Y210000D01*
X301990Y210259D01*
X302137Y211000D01*
Y214000D01*
X302165Y214033D01*
X305500D01*
X306827Y214297D01*
X307951Y215049D01*
X310451Y217549D01*
X311203Y218673D01*
X311467Y220000D01*
Y225000D01*
X311203Y226327D01*
X310451Y227451D01*
X307951Y229951D01*
X306827Y230703D01*
X305500Y230967D01*
X302165D01*
X302137Y231000D01*
Y234000D01*
X301990Y234741D01*
X301817Y235000D01*
X301990Y235259D01*
X302137Y236000D01*
Y239000D01*
X301990Y239741D01*
X301817Y240000D01*
X301990Y240259D01*
X302137Y241000D01*
Y242361D01*
X302704Y242991D01*
X304137Y243823D01*
X304822Y243686D01*
X305578D01*
X306846Y243939D01*
X307544Y244228D01*
X308619Y244946D01*
X309154Y245481D01*
X309872Y246556D01*
X310161Y247254D01*
Y247254D01*
X310414Y248522D01*
Y248713D01*
X310451Y248900D01*
X310414Y249087D01*
Y249278D01*
X310161Y250546D01*
X309872Y251244D01*
X309154Y252319D01*
X308619Y252854D01*
X307544Y253572D01*
X306846Y253861D01*
X306706Y254136D01*
X306974Y255055D01*
X307782Y256427D01*
X309056Y256954D01*
X310550Y258101D01*
X311696Y259594D01*
X312416Y261334D01*
X312662Y263200D01*
X312416Y265067D01*
X311696Y266806D01*
X310550Y268299D01*
X309056Y269445D01*
X307317Y270166D01*
X305450Y270412D01*
X294950D01*
X293083Y270166D01*
X291344Y269445D01*
X289851Y268299D01*
X288705Y266806D01*
X287984Y265067D01*
X287738Y263200D01*
X287984Y261334D01*
X288705Y259594D01*
X289851Y258101D01*
X291344Y256954D01*
X293083Y256234D01*
X294950Y255988D01*
X302098D01*
X304015Y255788D01*
X304015Y255788D01*
X304015D01*
X304045Y255481D01*
X304045D01*
X304192Y253988D01*
X304016Y253953D01*
X303554Y253861D01*
X302856Y253572D01*
X301781Y252854D01*
X301246Y252319D01*
X300528Y251244D01*
X300239Y250546D01*
Y250546D01*
X299986Y249278D01*
Y249087D01*
X299957Y248937D01*
X288700D01*
X287959Y248790D01*
X287330Y248370D01*
X286910Y247741D01*
X286856Y247467D01*
X282577D01*
X282533Y247533D01*
X280912Y248616D01*
X279000Y248996D01*
X277088Y248616D01*
X275467Y247533D01*
X274384Y245912D01*
X274004Y244000D01*
X274384Y242088D01*
X275467Y240467D01*
X277088Y239384D01*
X279000Y239004D01*
X280912Y239384D01*
X282533Y240467D01*
X282577Y240533D01*
X285184D01*
X285246Y240505D01*
X286763Y239000D01*
Y236000D01*
X286910Y235259D01*
X287083Y235000D01*
X286910Y234741D01*
X286763Y234000D01*
Y231000D01*
X286735Y230967D01*
X271500D01*
X270173Y230703D01*
X269049Y229951D01*
X266437Y227340D01*
X264437Y228168D01*
Y243000D01*
X264290Y243741D01*
X263870Y244370D01*
X263451Y244649D01*
X263173Y245173D01*
X262868Y246894D01*
X277451Y261478D01*
X278203Y262602D01*
X278467Y263929D01*
Y275564D01*
X281871Y278969D01*
X282259Y278710D01*
X283000Y278563D01*
X291000D01*
X291741Y278710D01*
X292370Y279130D01*
X292790Y279759D01*
X292937Y280500D01*
Y281533D01*
X299063D01*
Y280500D01*
X299210Y279759D01*
X299630Y279130D01*
X300259Y278710D01*
X301000Y278563D01*
X309000D01*
X309741Y278710D01*
X310370Y279130D01*
X310790Y279759D01*
X310937Y280500D01*
Y281533D01*
X317063D01*
Y280500D01*
X317210Y279759D01*
X317630Y279130D01*
X318259Y278710D01*
X319000Y278563D01*
X327000D01*
X327741Y278710D01*
X328370Y279130D01*
X328914Y279184D01*
X332549Y275549D01*
X333673Y274797D01*
X335000Y274533D01*
X342423D01*
X342467Y274467D01*
X344088Y273384D01*
X346000Y273004D01*
X347912Y273384D01*
X349533Y274467D01*
X350616Y276088D01*
X350996Y278000D01*
X350616Y279912D01*
X349533Y281533D01*
X347912Y282616D01*
X346000Y282996D01*
X344088Y282616D01*
X342467Y281533D01*
X342423Y281467D01*
X336436D01*
X330451Y287451D01*
X329327Y288203D01*
X328937Y288280D01*
Y289500D01*
X328790Y290241D01*
X328370Y290870D01*
X327741Y291290D01*
X327000Y291437D01*
X319000D01*
X318259Y291290D01*
X317630Y290870D01*
X317210Y290241D01*
X317063Y289500D01*
Y288467D01*
X310937D01*
Y289500D01*
X310790Y290241D01*
X310370Y290870D01*
X309741Y291290D01*
X309000Y291437D01*
X301000D01*
X300259Y291290D01*
X299630Y290870D01*
X299210Y290241D01*
X299063Y289500D01*
Y288467D01*
X292937D01*
Y289500D01*
X292790Y290241D01*
X292370Y290870D01*
X291741Y291290D01*
X291000Y291437D01*
X283000D01*
X282259Y291290D01*
X281630Y290870D01*
X281210Y290241D01*
X281063Y289500D01*
Y287795D01*
X280549Y287451D01*
X272549Y279451D01*
X271797Y278327D01*
X271534Y277000D01*
Y265365D01*
X266285Y260116D01*
X264437Y260882D01*
Y266000D01*
X264290Y266741D01*
X263870Y267370D01*
X263241Y267790D01*
X262500Y267937D01*
X253500D01*
X252759Y267790D01*
X252130Y267370D01*
X251710Y266741D01*
X251563Y266000D01*
Y259335D01*
X251437Y259217D01*
X249507Y260052D01*
X249437Y260159D01*
Y266000D01*
X249290Y266741D01*
X248870Y267370D01*
X248241Y267790D01*
X247500Y267937D01*
X247110D01*
X246861Y269877D01*
X248502Y270776D01*
X249088Y270384D01*
X251000Y270004D01*
X252912Y270384D01*
X254533Y271467D01*
X255616Y273088D01*
X255996Y275000D01*
X255616Y276912D01*
X254533Y278533D01*
X254467Y278577D01*
Y285564D01*
X269451Y300549D01*
X270203Y301673D01*
X270467Y303000D01*
Y363000D01*
X270203Y364327D01*
X269451Y365451D01*
X255451Y379451D01*
X254327Y380203D01*
X253000Y380466D01*
X249138D01*
X248532Y382467D01*
X248533Y382467D01*
X249616Y384088D01*
X249996Y386000D01*
X249616Y387912D01*
X248533Y389533D01*
X246912Y390616D01*
X245000Y390996D01*
X243088Y390616D01*
X241467Y389533D01*
X241423Y389467D01*
X236000D01*
X234673Y389203D01*
X233937Y388711D01*
X231937Y389365D01*
Y407198D01*
X246682Y421942D01*
X248458Y421039D01*
X248533Y420965D01*
Y414577D01*
X248467Y414533D01*
X247384Y412912D01*
X247004Y411000D01*
X247384Y409088D01*
X248467Y407467D01*
X250088Y406384D01*
X252000Y406004D01*
X253912Y406384D01*
X255533Y407467D01*
X256616Y409088D01*
X256996Y411000D01*
X256616Y412912D01*
X255533Y414533D01*
X255467Y414577D01*
Y419564D01*
X262451Y426549D01*
X263203Y427673D01*
X263467Y429000D01*
Y456423D01*
X263533Y456467D01*
X264616Y458088D01*
X264996Y460000D01*
X264616Y461912D01*
X263533Y463533D01*
X261912Y464616D01*
X260000Y464996D01*
X258088Y464616D01*
X256467Y463533D01*
X255755Y462467D01*
X251937D01*
Y463500D01*
X251790Y464241D01*
X251370Y464870D01*
X250741Y465290D01*
X250000Y465437D01*
X242000D01*
X241259Y465290D01*
X240630Y464870D01*
X240210Y464241D01*
X240063Y463500D01*
Y454500D01*
X240210Y453759D01*
X240630Y453130D01*
X240919Y452937D01*
X240748Y451362D01*
X240586Y450937D01*
X236414D01*
X236252Y451362D01*
X236081Y452937D01*
X236370Y453130D01*
X236790Y453759D01*
X236937Y454500D01*
Y463500D01*
X236790Y464241D01*
X236370Y464870D01*
X236776Y466889D01*
X237293Y467533D01*
X274564D01*
X284020Y458078D01*
X284004Y458000D01*
X284384Y456088D01*
X285467Y454467D01*
X287088Y453384D01*
X289000Y453004D01*
X290912Y453384D01*
X292533Y454467D01*
X293616Y456088D01*
X293996Y458000D01*
X293616Y459912D01*
X292533Y461533D01*
X290912Y462616D01*
X289000Y462996D01*
X288922Y462980D01*
X278451Y473451D01*
X277327Y474203D01*
X276000Y474467D01*
X234000D01*
X232673Y474203D01*
X231549Y473451D01*
X228549Y470451D01*
X227797Y469327D01*
X227533Y468000D01*
Y465437D01*
X227000D01*
X226259Y465290D01*
X225630Y464870D01*
X225210Y464241D01*
X225063Y463500D01*
Y454500D01*
X225210Y453759D01*
X225630Y453130D01*
X225919Y452937D01*
X225748Y451362D01*
X225586Y450937D01*
X217414Y450937D01*
X216000Y452351D01*
X216000Y479000D01*
X216000Y481000D01*
X218000Y481000D01*
X370000Y481000D01*
Y0D01*
D02*
G37*
G36*
X200000Y118000D02*
X204000Y114000D01*
X217000D01*
X226000Y123000D01*
Y129000D01*
X243000D01*
X244000Y128000D01*
Y123000D01*
X235000D01*
X224000Y112000D01*
X225000Y111000D01*
Y103000D01*
X215000D01*
X209000Y97000D01*
X209000Y62000D01*
X167000Y62000D01*
X130000Y25000D01*
X130000Y17000D01*
X104750Y17000D01*
X104750Y44000D01*
X126000Y44000D01*
X153000Y71000D01*
X153000Y93000D01*
X169000Y109000D01*
Y131000D01*
X189000D01*
X194000Y136000D01*
X200000D01*
Y118000D01*
D02*
G37*
%LPC*%
G36*
X302000Y136937D02*
X258000D01*
X257259Y136790D01*
X256630Y136370D01*
X256210Y135741D01*
X256063Y135000D01*
Y122000D01*
X256210Y121259D01*
X256630Y120630D01*
X256630Y120630D01*
X260063Y117198D01*
Y103000D01*
X260210Y102259D01*
X260630Y101630D01*
X261259Y101210D01*
X262000Y101063D01*
X266618D01*
X267383Y99215D01*
X264549Y96381D01*
X263797Y95256D01*
X263533Y93930D01*
Y86750D01*
X263563Y86602D01*
Y83250D01*
X261937Y81837D01*
X260250D01*
X259509Y81690D01*
X258880Y81270D01*
X258460Y80641D01*
X258313Y79900D01*
Y64100D01*
X258460Y63359D01*
X258633Y63099D01*
Y61105D01*
X258563Y60750D01*
Y57398D01*
X258533Y57250D01*
Y36937D01*
X217802Y36937D01*
X203370Y51370D01*
X203370Y51370D01*
X202741Y51790D01*
X202000Y51937D01*
X202000Y51937D01*
X175000D01*
X174259Y51790D01*
X173630Y51370D01*
X173210Y50741D01*
X173063Y50000D01*
Y6000D01*
X173063Y6000D01*
X173210Y5259D01*
X173630Y4630D01*
X173630Y4630D01*
X174630Y3630D01*
X175259Y3210D01*
X176000Y3063D01*
X176000Y3063D01*
X270000D01*
X270741Y3210D01*
X271370Y3630D01*
X271790Y4259D01*
X271937Y5000D01*
Y6438D01*
X273585Y7025D01*
X273937Y7092D01*
X274509Y6710D01*
X275250Y6563D01*
X284750D01*
X285491Y6710D01*
X286120Y7130D01*
X286540Y7759D01*
X286687Y8500D01*
Y9788D01*
X287000D01*
X288229Y10033D01*
X289271Y10729D01*
X293085Y14543D01*
X293691Y14562D01*
X293710Y14559D01*
X295182Y13988D01*
X295207Y13863D01*
X295968Y12024D01*
X296388Y11396D01*
X296993Y10791D01*
X297079Y10679D01*
X297191Y10593D01*
X297796Y9988D01*
X298424Y9568D01*
X300263Y8806D01*
X301005Y8659D01*
X301859D01*
X302518Y8000D01*
X351750D01*
Y8724D01*
X351819Y9247D01*
X353000Y10640D01*
X353141Y10659D01*
X353995D01*
X354737Y10806D01*
X356576Y11568D01*
X357204Y11988D01*
X357809Y12593D01*
X357921Y12679D01*
X358008Y12791D01*
X358612Y13396D01*
X359032Y14024D01*
X359794Y15863D01*
X359941Y16605D01*
Y17459D01*
X359960Y17600D01*
Y74600D01*
X359941Y74741D01*
Y75093D01*
X359904Y75280D01*
X359904Y75472D01*
X359730Y76345D01*
X359723Y76401D01*
X359715Y76419D01*
X359711Y76439D01*
X359638Y76616D01*
X359601Y76803D01*
X359223Y77714D01*
X359117Y77873D01*
X359044Y78049D01*
X359034Y78064D01*
X359027Y78080D01*
X358995Y78121D01*
X358495Y78869D01*
X358360Y79004D01*
X358254Y79163D01*
X358007Y79409D01*
X357921Y79521D01*
X350921Y86521D01*
X350809Y86607D01*
X350204Y87212D01*
X349576Y87632D01*
X347737Y88393D01*
X346995Y88541D01*
X346141D01*
X346000Y88560D01*
X345859Y88541D01*
X345005D01*
X344263Y88393D01*
X342424Y87632D01*
X341796Y87212D01*
X341191Y86607D01*
X341079Y86521D01*
X340993Y86409D01*
X340388Y85804D01*
X339968Y85176D01*
X339207Y83337D01*
X334566D01*
X333467Y84436D01*
Y124000D01*
X333203Y125327D01*
X332451Y126451D01*
X331981Y126922D01*
X331996Y127000D01*
X331616Y128912D01*
X330533Y130533D01*
X328912Y131616D01*
X327000Y131996D01*
X325088Y131616D01*
X323467Y130533D01*
X322384Y128912D01*
X322004Y127000D01*
X322384Y125088D01*
X322637Y124710D01*
X321435Y122909D01*
X321000Y122996D01*
X319088Y122616D01*
X317467Y121533D01*
X317423Y121467D01*
X305870D01*
X304834Y121753D01*
X303937Y123294D01*
Y135000D01*
X303790Y135741D01*
X303370Y136370D01*
X302741Y136790D01*
X302000Y136937D01*
D02*
G37*
G36*
X347000Y183759D02*
X337000D01*
X335199Y183522D01*
X333520Y182827D01*
X332079Y181721D01*
X330973Y180280D01*
X330278Y178601D01*
X330041Y176800D01*
X330278Y174999D01*
X330973Y173320D01*
X332079Y171879D01*
X333520Y170773D01*
X335199Y170078D01*
X337000Y169841D01*
X347000D01*
X348801Y170078D01*
X350480Y170773D01*
X351921Y171879D01*
X353027Y173320D01*
X353722Y174999D01*
X353960Y176800D01*
X353722Y178601D01*
X353027Y180280D01*
X351921Y181721D01*
X350480Y182827D01*
X348801Y183522D01*
X347000Y183759D01*
D02*
G37*
G36*
X97000Y158937D02*
X97000Y158937D01*
X81000D01*
X80259Y158790D01*
X79630Y158370D01*
X79210Y157741D01*
X79063Y157000D01*
Y65000D01*
X79210Y64259D01*
X79630Y63630D01*
X80259Y63210D01*
X81000Y63063D01*
X129000D01*
X129741Y63210D01*
X130370Y63630D01*
X130790Y64259D01*
X130937Y65000D01*
Y100000D01*
X130790Y100741D01*
X130370Y101370D01*
X129741Y101790D01*
X129000Y101937D01*
X118802D01*
X113937Y106802D01*
Y134000D01*
X113790Y134741D01*
X113370Y135370D01*
X113370Y135370D01*
X102370Y146370D01*
X101937Y146659D01*
Y154000D01*
X101937Y154000D01*
X101790Y154741D01*
X101370Y155370D01*
X101370Y155370D01*
X98370Y158370D01*
X97741Y158790D01*
X97618Y158814D01*
X97000Y158937D01*
D02*
G37*
G36*
X267500Y165937D02*
X258500D01*
X257759Y165790D01*
X257130Y165370D01*
X256710Y164741D01*
X256563Y164000D01*
Y156000D01*
X256710Y155259D01*
X257130Y154630D01*
X257759Y154210D01*
X258500Y154063D01*
X260734D01*
Y149937D01*
X258700D01*
X257959Y149790D01*
X257330Y149370D01*
X256910Y148741D01*
X256763Y148000D01*
Y142000D01*
X256910Y141259D01*
X257330Y140630D01*
X257959Y140210D01*
X258700Y140063D01*
X269700D01*
X270441Y140210D01*
X271070Y140630D01*
X271490Y141259D01*
X271637Y142000D01*
Y148000D01*
X271490Y148741D01*
X271070Y149370D01*
X270441Y149790D01*
X269700Y149937D01*
X267667D01*
Y154096D01*
X268241Y154210D01*
X268870Y154630D01*
X269290Y155259D01*
X269437Y156000D01*
Y164000D01*
X269290Y164741D01*
X268870Y165370D01*
X268241Y165790D01*
X267500Y165937D01*
D02*
G37*
G36*
X290500Y390687D02*
X281500D01*
X280759Y390540D01*
X280130Y390120D01*
X279710Y389491D01*
X279563Y388750D01*
Y379250D01*
X279710Y378509D01*
X280130Y377880D01*
X280759Y377460D01*
X281500Y377313D01*
X282533D01*
Y373000D01*
X282797Y371673D01*
X283315Y370899D01*
X283020Y369456D01*
X282669Y368731D01*
X282088Y368616D01*
X280467Y367533D01*
X279384Y365912D01*
X279004Y364000D01*
X279384Y362088D01*
X280467Y360467D01*
X282088Y359384D01*
X284000Y359004D01*
X285912Y359384D01*
X287533Y360467D01*
X287554Y360469D01*
X290288Y357735D01*
Y352600D01*
X290459Y351744D01*
Y349264D01*
X290345Y335687D01*
X290288Y335400D01*
Y328830D01*
X287670Y326212D01*
X284747D01*
X284533Y326533D01*
X282912Y327616D01*
X281000Y327996D01*
X279088Y327616D01*
X277467Y326533D01*
X276384Y324912D01*
X276004Y323000D01*
X276384Y321088D01*
X277467Y319467D01*
X279088Y318384D01*
X281000Y318004D01*
X282912Y318384D01*
X284533Y319467D01*
X284747Y319788D01*
X286107D01*
X286658Y319224D01*
X287181Y317788D01*
X286521Y316901D01*
X285088Y316616D01*
X283467Y315533D01*
X282384Y313912D01*
X282004Y312000D01*
X282384Y310088D01*
X283467Y308467D01*
X283512Y308437D01*
X283445Y306437D01*
X283000D01*
X282259Y306290D01*
X281630Y305870D01*
X281210Y305241D01*
X281063Y304500D01*
Y295500D01*
X281210Y294759D01*
X281630Y294130D01*
X282259Y293710D01*
X283000Y293563D01*
X291000D01*
X291741Y293710D01*
X292370Y294130D01*
X292790Y294759D01*
X292937Y295500D01*
Y304500D01*
X292790Y305241D01*
X292370Y305870D01*
X291741Y306290D01*
X291000Y306437D01*
X290555D01*
X290488Y308437D01*
X290533Y308467D01*
X291616Y310088D01*
X291996Y312000D01*
X291996Y312002D01*
X293451Y313386D01*
X295236Y312836D01*
X295384Y312088D01*
X296467Y310467D01*
X298088Y309384D01*
X300000Y309004D01*
X301912Y309384D01*
X303288Y310304D01*
X304331Y310025D01*
X305288Y309495D01*
Y306437D01*
X301000D01*
X300259Y306290D01*
X299630Y305870D01*
X299210Y305241D01*
X299063Y304500D01*
Y295500D01*
X299210Y294759D01*
X299630Y294130D01*
X300259Y293710D01*
X301000Y293563D01*
X309000D01*
X309741Y293710D01*
X310370Y294130D01*
X310790Y294759D01*
X310937Y295500D01*
Y301478D01*
X311467Y302271D01*
X311712Y303500D01*
Y319133D01*
X313559Y319898D01*
X316079Y317379D01*
X316004Y317000D01*
X316384Y315088D01*
X317467Y313467D01*
X319088Y312384D01*
X319533Y312296D01*
Y306437D01*
X319000D01*
X318259Y306290D01*
X317630Y305870D01*
X317210Y305241D01*
X317063Y304500D01*
Y295500D01*
X317210Y294759D01*
X317630Y294130D01*
X318259Y293710D01*
X319000Y293563D01*
X327000D01*
X327741Y293710D01*
X328370Y294130D01*
X328790Y294759D01*
X328937Y295500D01*
Y296267D01*
X329325Y296571D01*
X330937Y297153D01*
X332088Y296384D01*
X334000Y296004D01*
X335912Y296384D01*
X336063Y296485D01*
X338063Y295416D01*
Y287500D01*
X338210Y286759D01*
X338630Y286130D01*
X339259Y285710D01*
X340000Y285563D01*
X348000D01*
X348741Y285710D01*
X349370Y286130D01*
X349790Y286759D01*
X349937Y287500D01*
Y288533D01*
X354563D01*
Y288500D01*
X354710Y287759D01*
X355130Y287130D01*
X355759Y286710D01*
X356500Y286563D01*
X363500D01*
X364241Y286710D01*
X364870Y287130D01*
X365290Y287759D01*
X365437Y288500D01*
Y295500D01*
X365290Y296241D01*
X364870Y296870D01*
X364241Y297290D01*
X363500Y297437D01*
X356500D01*
X355759Y297290D01*
X355130Y296870D01*
X354710Y296241D01*
X354563Y295500D01*
Y295467D01*
X349937D01*
Y296500D01*
X349790Y297241D01*
X349370Y297870D01*
X348741Y298290D01*
X348000Y298437D01*
X342366D01*
X341117Y300266D01*
X341244Y300563D01*
X348000D01*
X348741Y300710D01*
X349370Y301130D01*
X349790Y301759D01*
X349937Y302500D01*
Y311500D01*
X349912Y312384D01*
X351533Y313467D01*
X351577Y313533D01*
X354564D01*
X355055Y313042D01*
X355063Y313024D01*
X355130Y310870D01*
X354710Y310241D01*
X354563Y309500D01*
Y302500D01*
X354710Y301759D01*
X355130Y301130D01*
X355759Y300710D01*
X356500Y300563D01*
X363500D01*
X364241Y300710D01*
X364870Y301130D01*
X365290Y301759D01*
X365437Y302500D01*
Y309500D01*
X365290Y310241D01*
X364870Y310870D01*
X364241Y311290D01*
X363500Y311437D01*
X363467D01*
Y313000D01*
X363203Y314327D01*
X362451Y315451D01*
X358451Y319451D01*
X357327Y320203D01*
X356000Y320467D01*
X354208D01*
X354190Y320511D01*
X353875Y322467D01*
X354120Y322630D01*
X354540Y323259D01*
X354687Y324000D01*
Y338000D01*
X354540Y338741D01*
X354120Y339370D01*
X353491Y339790D01*
X352750Y339937D01*
X350967D01*
Y358063D01*
X352750D01*
X353491Y358210D01*
X354120Y358630D01*
X354540Y359259D01*
X354687Y360000D01*
Y374000D01*
X354540Y374741D01*
X354120Y375370D01*
X353491Y375790D01*
X352750Y375937D01*
X342250D01*
X341509Y375790D01*
X340880Y375370D01*
X340460Y374741D01*
X340313Y374000D01*
Y372467D01*
X336577D01*
X336533Y372533D01*
X334912Y373616D01*
X333000Y373996D01*
X331088Y373616D01*
X329467Y372533D01*
X329212Y372150D01*
X327708Y372413D01*
X327172Y372698D01*
X326967Y373729D01*
X326271Y374771D01*
X323806Y377236D01*
X323870Y377880D01*
X324290Y378509D01*
X324437Y379250D01*
Y388750D01*
X324290Y389491D01*
X323870Y390120D01*
X323241Y390540D01*
X322500Y390687D01*
X313500D01*
X312759Y390540D01*
X312130Y390120D01*
X311710Y389491D01*
X311563Y388750D01*
Y379250D01*
X311710Y378509D01*
X312130Y377880D01*
X312759Y377460D01*
X313500Y377313D01*
X314744D01*
X315793Y376047D01*
X316073Y375581D01*
X315975Y375229D01*
X315277Y373852D01*
X314088Y373616D01*
X313820Y373436D01*
X312700Y373643D01*
X311425Y374242D01*
X310951Y374951D01*
X307931Y377972D01*
X308290Y378509D01*
X308437Y379250D01*
Y388750D01*
X308290Y389491D01*
X307870Y390120D01*
X307241Y390540D01*
X306500Y390687D01*
X297500D01*
X296759Y390540D01*
X296130Y390120D01*
X295710Y389491D01*
X295563Y388750D01*
Y379250D01*
X295710Y378509D01*
X296130Y377880D01*
X296759Y377460D01*
X297500Y377313D01*
X299038D01*
X299549Y376549D01*
X302326Y373771D01*
X301341Y371928D01*
X301000Y371996D01*
X299088Y371616D01*
X297467Y370533D01*
X296815Y369556D01*
X294522Y369020D01*
X289467Y374075D01*
Y377313D01*
X290500D01*
X291241Y377460D01*
X291870Y377880D01*
X292290Y378509D01*
X292437Y379250D01*
Y388750D01*
X292290Y389491D01*
X291870Y390120D01*
X291241Y390540D01*
X290500Y390687D01*
D02*
G37*
G36*
X361000Y430937D02*
X333000D01*
X332259Y430790D01*
X331630Y430370D01*
X331210Y429741D01*
X331063Y429000D01*
Y390000D01*
X331210Y389259D01*
X331630Y388630D01*
X332259Y388210D01*
X333000Y388063D01*
X361000D01*
X361741Y388210D01*
X362370Y388630D01*
X362790Y389259D01*
X362937Y390000D01*
Y429000D01*
X362790Y429741D01*
X362370Y430370D01*
X361741Y430790D01*
X361000Y430937D01*
D02*
G37*
G36*
X148000Y328996D02*
X146088Y328616D01*
X144467Y327533D01*
X144423Y327467D01*
X143000D01*
X141673Y327203D01*
X140549Y326451D01*
X136049Y321951D01*
X135297Y320827D01*
X135033Y319500D01*
Y316937D01*
X133750D01*
X133009Y316790D01*
X132380Y316370D01*
X131960Y315741D01*
X131813Y315000D01*
Y306000D01*
X131960Y305259D01*
X132380Y304630D01*
X133009Y304210D01*
X133750Y304063D01*
X140035D01*
X141660Y302437D01*
X140832Y300437D01*
X133000D01*
X132259Y300290D01*
X131630Y299870D01*
X131210Y299241D01*
X131063Y298500D01*
Y290500D01*
X131210Y289759D01*
X131630Y289130D01*
X132259Y288710D01*
X133000Y288563D01*
X141832D01*
X142160Y288175D01*
X142775Y286678D01*
X140035Y283937D01*
X133750D01*
X133009Y283790D01*
X132380Y283370D01*
X131960Y282741D01*
X131813Y282000D01*
Y273000D01*
X131960Y272259D01*
X132380Y271630D01*
X133009Y271210D01*
X133750Y271063D01*
X143250D01*
X143991Y271210D01*
X144620Y271630D01*
X145040Y272259D01*
X145187Y273000D01*
Y279285D01*
X151936Y286033D01*
X156500D01*
X156648Y286063D01*
X160250D01*
X160991Y286210D01*
X161620Y286630D01*
X162040Y287259D01*
X162187Y288000D01*
Y291000D01*
X162040Y291741D01*
X161867Y292000D01*
X162040Y292259D01*
X162187Y293000D01*
Y296000D01*
X162040Y296741D01*
X161867Y297000D01*
X162040Y297259D01*
X162187Y298000D01*
Y301000D01*
X162040Y301741D01*
X161867Y302000D01*
X162040Y302259D01*
X162187Y303000D01*
Y304366D01*
X162457Y306043D01*
X164133Y306313D01*
X165500D01*
X166241Y306460D01*
X166500Y306633D01*
X166759Y306460D01*
X167500Y306313D01*
X170500D01*
X171241Y306460D01*
X171500Y306633D01*
X171759Y306460D01*
X172500Y306313D01*
X175500D01*
X176241Y306460D01*
X176500Y306633D01*
X176759Y306460D01*
X177500Y306313D01*
X180500D01*
X181241Y306460D01*
X181500Y306633D01*
X181759Y306460D01*
X182500Y306313D01*
X185500D01*
X186241Y306460D01*
X186870Y306880D01*
X187290Y307509D01*
X187437Y308250D01*
Y315750D01*
X187290Y316491D01*
X186870Y317120D01*
X186241Y317540D01*
X185500Y317687D01*
X182500D01*
X181759Y317540D01*
X181500Y317367D01*
X181241Y317540D01*
X180500Y317687D01*
X177500D01*
X176759Y317540D01*
X176500Y317367D01*
X176241Y317540D01*
X175500Y317687D01*
X172500D01*
X171759Y317540D01*
X171500Y317367D01*
X171241Y317540D01*
X170500Y317687D01*
X167500D01*
X166759Y317540D01*
X166500Y317367D01*
X166241Y317540D01*
X165500Y317687D01*
X162500D01*
X161759Y317540D01*
X161130Y317120D01*
X160710Y316491D01*
X160563Y315750D01*
Y309883D01*
X160293Y308207D01*
X158617Y307937D01*
X152750D01*
X152009Y307790D01*
X151380Y307370D01*
X150960Y306741D01*
X150813Y306000D01*
Y305703D01*
X148965Y304937D01*
X145187Y308715D01*
Y315000D01*
X145040Y315741D01*
X144620Y316370D01*
X143991Y316790D01*
X143599Y316868D01*
X143066Y317833D01*
X142840Y318937D01*
X144379Y320476D01*
X144467Y320467D01*
X146088Y319384D01*
X148000Y319004D01*
X149912Y319384D01*
X151533Y320467D01*
X152616Y322088D01*
X152996Y324000D01*
X152616Y325912D01*
X151533Y327533D01*
X149912Y328616D01*
X148000Y328996D01*
D02*
G37*
G36*
X262500Y202937D02*
X259500D01*
X258759Y202790D01*
X258500Y202617D01*
X258241Y202790D01*
X257500Y202937D01*
X254500D01*
X253759Y202790D01*
X253130Y202370D01*
X252710Y201741D01*
X252563Y201000D01*
Y185000D01*
X252710Y184259D01*
X253130Y183630D01*
X253759Y183210D01*
X254500Y183063D01*
X257500D01*
X258241Y183210D01*
X258500Y183383D01*
X258759Y183210D01*
X259500Y183063D01*
X262500D01*
X263241Y183210D01*
X263870Y183630D01*
X264290Y184259D01*
X264437Y185000D01*
Y201000D01*
X264290Y201741D01*
X263870Y202370D01*
X263241Y202790D01*
X262500Y202937D01*
D02*
G37*
G36*
X347000Y270159D02*
X337000D01*
X335199Y269922D01*
X333520Y269227D01*
X332079Y268121D01*
X330973Y266680D01*
X330278Y265001D01*
X330041Y263200D01*
X330278Y261399D01*
X330973Y259720D01*
X332079Y258279D01*
X333520Y257173D01*
X335199Y256478D01*
X337000Y256241D01*
X347000D01*
X348801Y256478D01*
X350480Y257173D01*
X351921Y258279D01*
X353027Y259720D01*
X353722Y261399D01*
X353960Y263200D01*
X353722Y265001D01*
X353027Y266680D01*
X351921Y268121D01*
X350480Y269227D01*
X348801Y269922D01*
X347000Y270159D01*
D02*
G37*
%LPD*%
G36*
X217000Y35000D02*
X270000Y35000D01*
X270000Y5000D01*
X176000D01*
X175000Y6000D01*
Y50000D01*
X202000D01*
X217000Y35000D01*
D02*
G37*
G36*
X320533Y107921D02*
Y83337D01*
X315794D01*
X315032Y85176D01*
X314612Y85804D01*
X314008Y86409D01*
X313921Y86521D01*
X313809Y86608D01*
X313204Y87212D01*
X312576Y87632D01*
X310737Y88393D01*
X309995Y88541D01*
X309141D01*
X309000Y88560D01*
X308860Y88541D01*
X308005D01*
X307263Y88393D01*
X305424Y87632D01*
X304796Y87212D01*
X304191Y86607D01*
X304079Y86521D01*
X297079Y79521D01*
X296993Y79409D01*
X296747Y79163D01*
X296640Y79004D01*
X296505Y78869D01*
X296005Y78121D01*
X295973Y78080D01*
X295966Y78064D01*
X295957Y78049D01*
X295884Y77873D01*
X295777Y77714D01*
X295399Y76803D01*
X295362Y76616D01*
X295289Y76439D01*
X295285Y76419D01*
X295278Y76401D01*
X295270Y76345D01*
X295096Y75472D01*
X295096Y75280D01*
X295059Y75093D01*
Y74741D01*
X295041Y74600D01*
Y45599D01*
X293041Y44530D01*
X292912Y44616D01*
X291000Y44996D01*
X290621Y44921D01*
X285212Y50330D01*
Y52892D01*
X285290Y53009D01*
X285437Y53750D01*
Y60750D01*
X285290Y61491D01*
X285120Y62730D01*
X285540Y63359D01*
X285687Y64100D01*
Y79900D01*
X285540Y80641D01*
X285120Y81270D01*
X285290Y82509D01*
X285437Y83250D01*
Y90250D01*
X285290Y90991D01*
X284928Y91533D01*
X285028Y92032D01*
X285606Y93533D01*
X295000D01*
X296327Y93797D01*
X297451Y94549D01*
X310379Y107476D01*
X310467Y107467D01*
X312088Y106384D01*
X314000Y106004D01*
X315912Y106384D01*
X317533Y107467D01*
X318533Y108965D01*
X318680Y108986D01*
X320533Y107921D01*
D02*
G37*
G36*
X302000Y122000D02*
X281000D01*
X272000Y113000D01*
Y103832D01*
X271168Y103000D01*
X262000D01*
Y118000D01*
X258000Y122000D01*
Y135000D01*
X302000D01*
Y122000D01*
D02*
G37*
G36*
X100000Y154000D02*
Y145000D01*
X101000D01*
X112000Y134000D01*
Y106000D01*
X118000Y100000D01*
X129000D01*
Y65000D01*
X81000D01*
Y157000D01*
X97000D01*
X100000Y154000D01*
D02*
G37*
G36*
X327788Y356670D02*
Y320000D01*
X328033Y318771D01*
X328729Y317729D01*
X337458Y309000D01*
X334379Y305921D01*
X334000Y305996D01*
X332088Y305616D01*
X330883Y304810D01*
X329224Y305152D01*
X328663Y305432D01*
X328370Y305870D01*
X327741Y306290D01*
X327000Y306437D01*
X326467D01*
Y315000D01*
X326203Y316327D01*
X325940Y316719D01*
X325996Y317000D01*
X325616Y318912D01*
X324533Y320533D01*
X322912Y321616D01*
X321000Y321996D01*
X320621Y321921D01*
X316712Y325830D01*
Y328830D01*
X319820Y328830D01*
X320420Y328830D01*
X321000Y328250D01*
X321750Y329000D01*
X321750Y330279D01*
Y354000D01*
X321712D01*
Y358170D01*
X324000Y360458D01*
X327788Y356670D01*
D02*
G37*
G36*
X361000Y390000D02*
X333000D01*
Y429000D01*
X361000D01*
Y390000D01*
D02*
G37*
D10*
X240000Y341000D02*
D03*
X224000D02*
D03*
X225000Y399000D02*
D03*
X241000D02*
D03*
X58000Y149000D02*
D03*
X42000D02*
D03*
X219000Y108000D02*
D03*
X235000D02*
D03*
X267000D02*
D03*
X251000D02*
D03*
X264000Y13000D02*
D03*
X280000D02*
D03*
X280000Y30000D02*
D03*
X264000D02*
D03*
X321000Y17600D02*
D03*
X337000D02*
D03*
X168500Y254500D02*
D03*
X184500D02*
D03*
X56000Y239000D02*
D03*
X40000D02*
D03*
X138500Y277500D02*
D03*
X122500D02*
D03*
X138500Y310500D02*
D03*
X122500D02*
D03*
X81000Y309000D02*
D03*
X97000D02*
D03*
X57000Y420000D02*
D03*
X41000D02*
D03*
D11*
X318500Y352600D02*
D03*
X313500D02*
D03*
X308500D02*
D03*
X303500D02*
D03*
X298500D02*
D03*
X293500D02*
D03*
Y335400D02*
D03*
X298500D02*
D03*
X303500D02*
D03*
X308500D02*
D03*
X313500D02*
D03*
X318500D02*
D03*
D12*
X20500Y169500D02*
D03*
X53500D02*
D03*
X20500Y218500D02*
D03*
X53500D02*
D03*
X20500Y259500D02*
D03*
X53500D02*
D03*
X20500Y308500D02*
D03*
X53500D02*
D03*
X20500Y349500D02*
D03*
X53500D02*
D03*
X20500Y398500D02*
D03*
X53500D02*
D03*
X20500Y79500D02*
D03*
X53500D02*
D03*
X20500Y128500D02*
D03*
X53500D02*
D03*
D13*
X176250Y292250D02*
D03*
D14*
X189000Y312000D02*
D03*
X184000D02*
D03*
X179000D02*
D03*
X174000D02*
D03*
X169000D02*
D03*
X164000D02*
D03*
Y272000D02*
D03*
X169000D02*
D03*
X174000D02*
D03*
X179000D02*
D03*
X184000D02*
D03*
X189000D02*
D03*
D15*
X156500Y304500D02*
D03*
Y299500D02*
D03*
Y294500D02*
D03*
Y289500D02*
D03*
Y284500D02*
D03*
Y279500D02*
D03*
X196500D02*
D03*
Y284500D02*
D03*
Y289500D02*
D03*
Y294500D02*
D03*
Y299500D02*
D03*
Y304500D02*
D03*
D16*
X318000Y384000D02*
D03*
Y400000D02*
D03*
X302000Y384000D02*
D03*
Y400000D02*
D03*
X286000Y384000D02*
D03*
Y400000D02*
D03*
X212000Y283000D02*
D03*
Y267000D02*
D03*
X90000Y461000D02*
D03*
Y445000D02*
D03*
D17*
X202500Y419500D02*
D03*
X197500D02*
D03*
X192500D02*
D03*
X187500D02*
D03*
X182500D02*
D03*
X177500D02*
D03*
X172500D02*
D03*
X167500D02*
D03*
X162500D02*
D03*
X157500D02*
D03*
X152500D02*
D03*
X147500D02*
D03*
Y349500D02*
D03*
X152500D02*
D03*
X157500D02*
D03*
X162500D02*
D03*
X167500D02*
D03*
X172500D02*
D03*
X177500D02*
D03*
X182500D02*
D03*
X187500D02*
D03*
X192500D02*
D03*
X197500D02*
D03*
X202500D02*
D03*
D18*
X140000Y412000D02*
D03*
Y407000D02*
D03*
Y402000D02*
D03*
Y397000D02*
D03*
Y392000D02*
D03*
Y387000D02*
D03*
Y382000D02*
D03*
Y377000D02*
D03*
Y372000D02*
D03*
Y367000D02*
D03*
Y362000D02*
D03*
Y357000D02*
D03*
X210000D02*
D03*
Y362000D02*
D03*
Y367000D02*
D03*
Y372000D02*
D03*
Y377000D02*
D03*
Y382000D02*
D03*
Y387000D02*
D03*
Y392000D02*
D03*
Y397000D02*
D03*
Y402000D02*
D03*
Y407000D02*
D03*
Y412000D02*
D03*
D19*
X175000Y384500D02*
D03*
D20*
X138000Y125000D02*
D03*
X98000D02*
D03*
D21*
X116000Y84500D02*
D03*
Y29500D02*
D03*
D22*
X234000Y85000D02*
D03*
Y20000D02*
D03*
D23*
X116000Y153000D02*
D03*
Y162500D02*
D03*
Y172000D02*
D03*
X89800Y153000D02*
D03*
Y172000D02*
D03*
X238000Y145000D02*
D03*
Y135500D02*
D03*
Y126000D02*
D03*
X264200Y145000D02*
D03*
Y126000D02*
D03*
D24*
X123800Y200000D02*
D03*
X152000D02*
D03*
D25*
X174500Y174000D02*
D03*
X193500D02*
D03*
D26*
X177000Y146000D02*
D03*
Y127000D02*
D03*
D27*
X196500Y128000D02*
D03*
X206000D02*
D03*
X215500D02*
D03*
X196500Y154200D02*
D03*
X215500D02*
D03*
D28*
X124000Y228000D02*
D03*
X151000D02*
D03*
D29*
X282000Y86750D02*
D03*
X277000D02*
D03*
X272000D02*
D03*
X267000D02*
D03*
X262000D02*
D03*
X282000Y57250D02*
D03*
X277000D02*
D03*
X272000D02*
D03*
X267000D02*
D03*
X262000D02*
D03*
D30*
X272000Y72000D02*
D03*
D31*
X332000Y53000D02*
D03*
X325500D02*
D03*
X319000D02*
D03*
X338500D02*
D03*
X332000Y33600D02*
D03*
X325500D02*
D03*
X319000D02*
D03*
X338500D02*
D03*
D32*
X293000Y128000D02*
D03*
Y150000D02*
D03*
D33*
X263000Y160000D02*
D03*
X248000D02*
D03*
X137500Y294500D02*
D03*
X122500D02*
D03*
X243000Y262000D02*
D03*
X258000D02*
D03*
X93000Y350000D02*
D03*
X108000D02*
D03*
D34*
X261000Y235000D02*
D03*
X256000D02*
D03*
X251000D02*
D03*
X246000D02*
D03*
X241000D02*
D03*
X261000Y193000D02*
D03*
X256000D02*
D03*
X251000D02*
D03*
X246000D02*
D03*
X241000D02*
D03*
D35*
X287000Y285000D02*
D03*
Y300000D02*
D03*
X305000Y285000D02*
D03*
Y300000D02*
D03*
X323000Y285000D02*
D03*
Y300000D02*
D03*
X344000Y307000D02*
D03*
Y292000D02*
D03*
X72000Y365000D02*
D03*
Y350000D02*
D03*
X106000Y460000D02*
D03*
Y445000D02*
D03*
X231000Y459000D02*
D03*
Y444000D02*
D03*
X246000Y459000D02*
D03*
Y444000D02*
D03*
D36*
X294450Y202500D02*
D03*
Y207500D02*
D03*
Y212500D02*
D03*
Y237500D02*
D03*
Y232500D02*
D03*
Y227500D02*
D03*
Y217500D02*
D03*
Y222500D02*
D03*
D37*
Y244000D02*
D03*
Y196000D02*
D03*
Y252000D02*
D03*
Y188000D02*
D03*
D38*
X360000Y306000D02*
D03*
Y292000D02*
D03*
D39*
X347500Y331000D02*
D03*
X362000D02*
D03*
X347500Y367000D02*
D03*
X362000D02*
D03*
D40*
X109000Y412000D02*
D03*
X93000D02*
D03*
X109000Y370000D02*
D03*
X93000D02*
D03*
D41*
X71000Y446000D02*
D03*
Y462000D02*
D03*
X29000Y446000D02*
D03*
Y462000D02*
D03*
D42*
X197500Y465000D02*
D03*
X146500D02*
D03*
D43*
X346000Y421800D02*
D03*
Y450000D02*
D03*
D44*
X188000Y83000D02*
D03*
Y30000D02*
D03*
D45*
X31000Y102000D02*
X53500Y79500D01*
X31000Y102000D02*
Y208000D01*
X20500Y218500D02*
X31000Y208000D01*
X321000Y18600D02*
X332000Y29600D01*
Y33600D01*
X293000Y128000D02*
X294000D01*
X279000Y244000D02*
X294450D01*
X280000Y196000D02*
X294450D01*
X282000Y215000D02*
X284500Y212500D01*
X282000Y219000D02*
X285500Y222500D01*
X284500Y212500D02*
X294450D01*
X285500Y222500D02*
X294450D01*
Y217500D02*
X305500D01*
X308000Y220000D01*
X37000Y186000D02*
X53500Y169500D01*
X246000Y193000D02*
Y206000D01*
X241000Y193000D02*
Y210000D01*
X276500Y222500D02*
X285500D01*
X302000Y379000D02*
X308500Y372500D01*
X302000Y379000D02*
Y384000D01*
X318000D02*
X318500Y383500D01*
X286000Y373000D02*
Y384000D01*
X347500Y331000D02*
Y367000D01*
X345500Y369000D02*
X347500Y367000D01*
X333000Y369000D02*
X345500D01*
X344000Y292000D02*
X360000D01*
X217000Y20000D02*
X234000D01*
X207000Y30000D02*
X217000Y20000D01*
X188000Y30000D02*
X207000D01*
X277000Y77000D02*
Y86750D01*
X272000Y72000D02*
X277000Y77000D01*
X267000Y108000D02*
Y123200D01*
X264200Y126000D02*
X267000Y123200D01*
X264200Y126000D02*
X291000D01*
X293000Y128000D01*
Y150000D02*
Y153000D01*
X280000Y166000D02*
X293000Y153000D01*
X280000Y166000D02*
Y196000D01*
X53500Y128500D02*
Y136500D01*
X58000Y141000D01*
Y149000D01*
X338500Y53000D02*
Y74500D01*
X330000Y83000D02*
X338500Y74500D01*
X332000Y53000D02*
Y72000D01*
X324000Y80000D02*
X332000Y72000D01*
X319950Y18650D02*
X321000Y17600D01*
X319000Y27000D02*
X321000Y25000D01*
X319000Y27000D02*
Y33600D01*
X321000Y17600D02*
Y18600D01*
Y25000D01*
X319000Y33600D02*
Y40000D01*
X325500Y46500D01*
Y53000D01*
Y61500D01*
X320000Y67000D02*
X325500Y61500D01*
X234000Y20000D02*
X248000D01*
X255000Y13000D01*
X264000D01*
X262000Y32000D02*
Y57250D01*
Y32000D02*
X264000Y30000D01*
Y13000D02*
Y30000D01*
X264000Y13000D02*
X264000Y13000D01*
X267000Y43000D02*
X280000Y30000D01*
X267000Y43000D02*
Y57250D01*
X272000Y49000D02*
Y57250D01*
X29000Y462000D02*
X71000D01*
X193500Y165500D02*
Y174000D01*
Y165500D02*
X196500Y162500D01*
Y154200D02*
Y162500D01*
X264200Y145000D02*
Y158800D01*
X263000Y160000D02*
X264200Y158800D01*
X37000Y186000D02*
Y220000D01*
X31000Y226000D02*
X37000Y220000D01*
X31000Y226000D02*
Y270000D01*
X20500Y280500D02*
X31000Y270000D01*
X20500Y384500D02*
Y398500D01*
Y280500D02*
Y308500D01*
X150500Y289500D02*
X156500D01*
X138500Y277500D02*
X150500Y289500D01*
X137500Y294500D02*
X156500D01*
X149500Y299500D02*
X156500D01*
X138500Y310500D02*
X149500Y299500D01*
X164000Y264000D02*
Y272000D01*
Y264000D02*
X168500Y259500D01*
Y254500D02*
Y259500D01*
X197500Y419500D02*
Y462500D01*
X222000Y402000D02*
X225000Y399000D01*
X210000Y402000D02*
X222000D01*
X210000Y387000D02*
X222000D01*
X225000Y390000D01*
Y399000D01*
Y438000D02*
X231000Y444000D01*
X246000D01*
X231000Y459000D02*
Y468000D01*
X234000Y471000D01*
X276000D01*
X289000Y458000D01*
X116000Y153000D02*
X130000D01*
X246000Y206000D02*
X250000Y210000D01*
X264000D01*
X241000Y210000D02*
X246000Y215000D01*
X259000D01*
X271500Y227500D01*
X256000Y224000D02*
Y235000D01*
X253000Y221000D02*
X256000Y224000D01*
X244000Y221000D02*
X253000D01*
X241000Y224000D02*
X244000Y221000D01*
X241000Y224000D02*
Y235000D01*
X187500Y419500D02*
Y429500D01*
X190000Y432000D01*
X192500Y419500D02*
Y429500D01*
X190000Y432000D02*
X192500Y429500D01*
X210000Y372000D02*
X249000D01*
X259000Y362000D01*
Y306000D02*
Y362000D01*
X210000Y382000D02*
X232000D01*
X236000Y386000D01*
X245000D01*
X210000Y357000D02*
X215000D01*
X224000Y341000D02*
Y348000D01*
X210000Y367000D02*
X240000D01*
X245000Y362000D01*
X229000Y362000D02*
X236000Y355000D01*
X210000Y362000D02*
X229000D01*
X243000Y290000D02*
X259000Y306000D01*
X243000Y262000D02*
Y290000D01*
X246000Y235000D02*
Y248000D01*
X243000Y251000D02*
X246000Y248000D01*
X321000Y317000D02*
X323000Y315000D01*
Y300000D02*
Y315000D01*
X252000Y411000D02*
Y421000D01*
X260000Y429000D01*
Y460000D01*
X246000Y459000D02*
X259000D01*
X260000Y460000D01*
X162500Y338500D02*
Y349500D01*
X133000Y407000D02*
X140000D01*
X72000Y365000D02*
Y383000D01*
X124000Y416000D02*
X133000Y407000D01*
X205000Y174000D02*
X206000Y175000D01*
X193500Y174000D02*
X205000D01*
X324000Y80000D02*
Y115000D01*
X321000Y118000D02*
X324000Y115000D01*
X295000Y97000D02*
X309000Y111000D01*
X314000D01*
X330000Y83000D02*
Y124000D01*
X214500Y304500D02*
X215000Y305000D01*
X196500Y304500D02*
X214500D01*
X196500Y299500D02*
X203500D01*
X206000Y297000D01*
X223000D01*
X53500Y349500D02*
X71500D01*
X72000Y350000D01*
X31000Y282000D02*
X53500Y259500D01*
X31000Y282000D02*
Y374000D01*
X20500Y384500D02*
X31000Y374000D01*
X327000Y127000D02*
X330000Y124000D01*
X275000Y277000D02*
X283000Y285000D01*
X287000D01*
X305000D01*
X236000Y221000D02*
X244000D01*
X226000Y231000D02*
X236000Y221000D01*
X138500Y310500D02*
Y319500D01*
X143000Y324000D01*
X148000D01*
X202500Y419500D02*
Y426500D01*
X212000Y436000D01*
X214000D01*
X137000Y412000D02*
X140000D01*
X130000Y419000D02*
X137000Y412000D01*
X130000Y419000D02*
Y430000D01*
X106000Y442000D02*
Y445000D01*
Y442000D02*
X118000Y430000D01*
X130000D01*
X92000Y351000D02*
X93000Y350000D01*
X92000Y351000D02*
Y369000D01*
X129000Y345000D02*
Y354000D01*
X132000Y357000D01*
X140000D01*
X130000Y362000D02*
X140000D01*
X120000Y352000D02*
X130000Y362000D01*
X120000Y344000D02*
Y352000D01*
X116000Y340000D02*
X120000Y344000D01*
X103000Y340000D02*
X116000D01*
X93000Y350000D02*
X103000Y340000D01*
X108000Y350000D02*
X119000Y361000D01*
X133000Y382000D02*
X140000D01*
X128000Y377000D02*
X140000D01*
X119000Y361000D02*
Y383000D01*
X94999Y387999D02*
X100999D01*
X78000Y388000D02*
Y389000D01*
X305000Y285000D02*
X323000D01*
X335000Y278000D02*
X346000D01*
X328000Y285000D02*
X335000Y278000D01*
X323000Y285000D02*
X328000D01*
X294450Y227500D02*
X305500D01*
X308000Y225000D01*
Y220000D02*
Y225000D01*
X271500Y227500D02*
X294450D01*
X282000Y215000D02*
Y219000D01*
X264000Y210000D02*
X276500Y222500D01*
X251000Y275000D02*
Y287000D01*
X267000Y303000D01*
Y363000D01*
X162500Y419500D02*
Y426500D01*
X150000Y439000D02*
X162500Y426500D01*
X71000Y462000D02*
X73000Y460000D01*
X202500Y343500D02*
Y349500D01*
X197500Y334500D02*
Y349500D01*
X356000Y317000D02*
X360000Y313000D01*
X348000Y317000D02*
X356000D01*
X360000Y306000D02*
Y313000D01*
X215000Y357000D02*
X224000Y348000D01*
X210000Y377000D02*
X253000D01*
X267000Y363000D01*
X256000Y235000D02*
Y244929D01*
X275000Y263929D01*
Y277000D01*
X251000Y235000D02*
Y252047D01*
X258000Y259047D01*
Y262000D01*
X100999Y387999D02*
X105000Y392000D01*
X124000Y405000D02*
X132000Y397000D01*
X140000D01*
X105000Y392000D02*
X140000D01*
X130000Y385000D02*
X133000Y382000D01*
X127750Y385000D02*
X130000D01*
X119000Y383000D02*
X121000Y385000D01*
X127750D01*
X88000Y373000D02*
Y391300D01*
X91000Y394300D01*
X202500Y343500D02*
X208772Y337229D01*
Y337016D02*
Y337229D01*
X165984Y335016D02*
X168770D01*
X162500Y338500D02*
X165984Y335016D01*
X167500Y344271D02*
X169671Y342100D01*
X167500Y344271D02*
Y349500D01*
X169671Y342100D02*
X173150D01*
X175650Y339600D01*
X173000Y327000D02*
X175650Y329650D01*
Y339600D01*
X272000Y49000D02*
X278500Y42500D01*
X262000Y57250D02*
X262100Y57350D01*
Y64150D01*
X277000Y97000D02*
X295000D01*
X272000Y86750D02*
Y92000D01*
X277000Y97000D01*
X267000Y86750D02*
Y93930D01*
X274970Y101900D01*
X288900D01*
X305000Y118000D01*
X321000D01*
X234000Y149000D02*
Y153750D01*
Y149000D02*
X238000Y145000D01*
X129000Y345000D02*
X132500Y341500D01*
X130500Y339500D02*
X132500Y341500D01*
X130500Y336750D02*
Y339500D01*
X88000Y373000D02*
X92000Y369000D01*
X106000Y460000D02*
X110750D01*
X131750Y439000D01*
X150000D01*
X196500Y284500D02*
X212500D01*
X214500Y282500D01*
X72000Y383000D02*
X78000Y389000D01*
X91000Y394300D02*
Y412000D01*
X73000Y460000D02*
X106000D01*
X197500Y462500D02*
X200000Y465000D01*
X225000Y399000D02*
Y438000D01*
D46*
X305000Y300000D02*
X308500Y303500D01*
Y335400D01*
X298500Y323500D02*
Y335400D01*
X287000Y312000D02*
X298500Y323500D01*
X287000Y300000D02*
Y312000D01*
X308500Y352600D02*
Y372500D01*
X318500Y378000D02*
X324000Y372500D01*
X318500Y378000D02*
Y383500D01*
X324000Y365000D02*
Y372500D01*
X318500Y352600D02*
Y359500D01*
X324000Y365000D01*
X298500Y352600D02*
Y360500D01*
X286000Y373000D02*
X298500Y360500D01*
X293500Y352600D02*
Y359065D01*
X331000Y320000D02*
X344000Y307000D01*
X293500Y327500D02*
Y335400D01*
X289000Y323000D02*
X293500Y327500D01*
X281000Y323000D02*
X289000D01*
X282000Y49000D02*
X291000Y40000D01*
X282000Y49000D02*
Y57250D01*
X177000Y127000D02*
X195500D01*
X196500Y128000D01*
Y114500D02*
Y128000D01*
X203000Y108000D02*
X219000D01*
X157000Y70000D02*
X170000Y83000D01*
X188000D01*
X98000Y102500D02*
X116000Y84500D01*
X98000Y102500D02*
Y125000D01*
X98000Y125000D01*
Y134000D01*
X89800Y142200D02*
X98000Y134000D01*
X89800Y142200D02*
Y153000D01*
X280000Y13000D02*
X287000D01*
X291000Y17000D01*
Y40000D01*
X188000Y83000D02*
X196500Y91500D01*
X300000Y314000D02*
X303500Y317500D01*
Y335400D01*
X313500Y324500D02*
X321000Y317000D01*
X313500Y324500D02*
Y335400D01*
X340000Y307000D02*
X344000D01*
X334000Y301000D02*
X340000Y307000D01*
X188000Y83000D02*
X202000Y69000D01*
X284000Y364000D02*
X288565D01*
X293500Y359065D01*
X313500Y352600D02*
Y366500D01*
X316000Y369000D01*
X303500Y352600D02*
Y364500D01*
X301000Y367000D02*
X303500Y364500D01*
X196500Y91500D02*
Y114500D01*
X203000Y108000D01*
X226950Y163506D02*
X239444Y176000D01*
X270996D01*
X116000Y29500D02*
X121750D01*
X157000Y64750D01*
Y70000D01*
X330000Y42600D02*
X336400D01*
X338500Y40500D01*
Y33600D02*
Y40500D01*
X337000Y17600D02*
Y26250D01*
X338500Y27750D01*
Y33600D01*
X337000Y13500D02*
Y17600D01*
Y13500D02*
X344500Y6000D01*
X319000Y53000D02*
Y55000D01*
X313250Y60750D02*
X319000Y55000D01*
X313250Y60750D02*
Y71250D01*
X318750Y76750D01*
Y92250D01*
X317000Y94000D02*
X318750Y92250D01*
X307000Y94000D02*
X317000D01*
X307000Y94000D02*
X307000Y94000D01*
X325500Y33600D02*
Y38100D01*
X330000Y42600D01*
X324000Y365000D02*
X331000Y358000D01*
Y320000D02*
Y358000D01*
X318500Y330500D02*
Y335400D01*
Y330500D02*
X323750Y325250D01*
X215500Y128000D02*
Y133726D01*
X226950Y145176D01*
Y163506D01*
X169000Y69000D02*
X202000D01*
D47*
X206000Y175000D02*
X226000Y195000D01*
Y283324D02*
X236000Y293324D01*
Y316000D01*
X224000Y328000D02*
X236000Y316000D01*
X224000Y328000D02*
Y341000D01*
X168500Y248500D02*
X206000Y211000D01*
X168500Y248500D02*
Y254500D01*
X226000Y195000D02*
Y231000D01*
Y283324D01*
X206000Y175000D02*
Y211000D01*
D48*
X300200Y263200D02*
D03*
Y176800D02*
D03*
D49*
X342000Y263200D02*
D03*
Y176800D02*
D03*
D50*
X279000Y244000D02*
D03*
X280000Y196000D02*
D03*
X316000Y369000D02*
D03*
X284000Y364000D02*
D03*
X333000Y369000D02*
D03*
X281000Y323000D02*
D03*
X320000Y67000D02*
D03*
X291000Y40000D02*
D03*
X300000Y314000D02*
D03*
X289000Y458000D02*
D03*
X190000Y432000D02*
D03*
X130000Y153000D02*
D03*
X251000Y275000D02*
D03*
X243000Y251000D02*
D03*
X236000Y355000D02*
D03*
X245000Y362000D02*
D03*
Y386000D02*
D03*
X287000Y312000D02*
D03*
X301000Y367000D02*
D03*
X321000Y317000D02*
D03*
X260000Y460000D02*
D03*
X252000Y411000D02*
D03*
X124000Y416000D02*
D03*
Y405000D02*
D03*
X206000Y175000D02*
D03*
X321000Y118000D02*
D03*
X314000Y111000D02*
D03*
X223000Y297000D02*
D03*
X215000Y305000D02*
D03*
X70500Y405000D02*
D03*
Y415000D02*
D03*
Y425000D02*
D03*
X68000Y432500D02*
D03*
X58000D02*
D03*
X340000Y397000D02*
D03*
X354000D02*
D03*
X334000Y301000D02*
D03*
X327000Y127000D02*
D03*
X148000Y324000D02*
D03*
X215000Y431000D02*
D03*
X221000Y425000D02*
D03*
X130000Y430000D02*
D03*
X128000Y377000D02*
D03*
X94999Y387999D02*
D03*
X78000Y388000D02*
D03*
X189000Y189000D02*
D03*
X203000D02*
D03*
X346000Y278000D02*
D03*
X222000Y69000D02*
D03*
X235000D02*
D03*
X249000D02*
D03*
X248000Y55000D02*
D03*
X235000Y57000D02*
D03*
X159000Y34000D02*
D03*
X162000Y22500D02*
D03*
X146250Y26250D02*
D03*
X151500Y15750D02*
D03*
X169000Y69000D02*
D03*
X246000Y325000D02*
D03*
X185500Y337500D02*
D03*
X19000Y243000D02*
D03*
X20000Y151000D02*
D03*
X19000Y59000D02*
D03*
X20000Y332000D02*
D03*
X77000Y173000D02*
D03*
Y164000D02*
D03*
X308000Y202000D02*
D03*
X309000Y238000D02*
D03*
X282000Y257000D02*
D03*
X171000Y192000D02*
D03*
X172000Y207000D02*
D03*
X170000Y221000D02*
D03*
Y158000D02*
D03*
X108000Y310000D02*
D03*
Y292500D02*
D03*
Y277500D02*
D03*
X197500Y334500D02*
D03*
X190500Y322500D02*
D03*
X173000Y327000D02*
D03*
X205500Y317500D02*
D03*
X348000Y317000D02*
D03*
X272000Y384000D02*
D03*
X331000Y381000D02*
D03*
X354000Y382000D02*
D03*
X199000Y258000D02*
D03*
X100000Y429000D02*
D03*
X86000D02*
D03*
X28000Y420000D02*
D03*
X15500Y435000D02*
D03*
Y447500D02*
D03*
X361000Y347000D02*
D03*
X286000Y345000D02*
D03*
X190500Y405000D02*
D03*
X175500D02*
D03*
Y392500D02*
D03*
X188000Y393000D02*
D03*
X160500Y405000D02*
D03*
Y392500D02*
D03*
X168000Y367500D02*
D03*
X127750Y385000D02*
D03*
X208772Y337016D02*
D03*
X168770Y335016D02*
D03*
X278500Y42500D02*
D03*
X208000Y101000D02*
D03*
X234000Y153750D02*
D03*
X162250Y127250D02*
D03*
X270996Y176000D02*
D03*
X307000Y94000D02*
D03*
X156750Y367000D02*
D03*
X130500Y336750D02*
D03*
X97250Y380000D02*
D03*
X323750Y325250D02*
D03*
M02*
